<svg xmlns="http://www.w3.org/2000/svg" xmlns:xlink="http://www.w3.org/1999/xlink" width="150" zoomAndPan="magnify" viewBox="0 0 112.5 37.5" height="50" preserveAspectRatio="xMidYMid meet" version="1.0"><defs><g/><clipPath id="fa9b3e2af2"><path d="M 9.414062 22 L 11 22 L 11 25 L 9.414062 25 Z M 9.414062 22 " clip-rule="nonzero"/></clipPath><clipPath id="ce2af2afd7"><path d="M 9.414062 13 L 11 13 L 11 15 L 9.414062 15 Z M 9.414062 13 " clip-rule="nonzero"/></clipPath><clipPath id="916db476ac"><path d="M 17 8.609375 L 19 8.609375 L 19 11 L 17 11 Z M 17 8.609375 " clip-rule="nonzero"/></clipPath><clipPath id="aee08d5ed7"><path d="M 12 8.609375 L 14 8.609375 L 14 11 L 12 11 Z M 12 8.609375 " clip-rule="nonzero"/></clipPath><clipPath id="c6ed2b7526"><path d="M 28 17 L 29.488281 17 L 29.488281 20 L 28 20 Z M 28 17 " clip-rule="nonzero"/></clipPath><clipPath id="56d05ed67c"><path d="M 17 27 L 19 27 L 19 28.679688 L 17 28.679688 Z M 17 27 " clip-rule="nonzero"/></clipPath><clipPath id="4cea550ba7"><path d="M 12 27 L 14 27 L 14 28.679688 L 12 28.679688 Z M 12 27 " clip-rule="nonzero"/></clipPath></defs><g clip-path="url(#fa9b3e2af2)"><path fill="#ffffff" d="M 10.160156 22.578125 C 9.769531 22.578125 9.449219 22.902344 9.449219 23.300781 C 9.449219 23.699219 9.769531 24.023438 10.160156 24.023438 C 10.554688 24.023438 10.875 23.699219 10.875 23.300781 C 10.875 22.902344 10.554688 22.578125 10.160156 22.578125 Z M 10.160156 22.578125 " fill-opacity="1" fill-rule="nonzero"/></g><path fill="#ffffff" d="M 12.816406 17.449219 C 13.386719 17.449219 13.863281 17.863281 13.972656 18.410156 L 16.96875 18.410156 C 17.078125 17.863281 17.554688 17.449219 18.125 17.449219 C 18.257812 17.449219 18.382812 17.472656 18.503906 17.511719 L 20 14.882812 C 19.757812 14.664062 19.601562 14.34375 19.601562 13.988281 C 19.601562 13.628906 19.757812 13.308594 20 13.089844 L 18.503906 10.460938 C 18.382812 10.503906 18.257812 10.523438 18.125 10.523438 C 17.554688 10.523438 17.078125 10.113281 16.96875 9.566406 L 13.972656 9.566406 C 13.863281 10.113281 13.386719 10.523438 12.816406 10.523438 C 12.683594 10.523438 12.558594 10.503906 12.441406 10.460938 L 10.941406 13.089844 C 11.1875 13.308594 11.339844 13.628906 11.339844 13.988281 C 11.339844 14.34375 11.1875 14.664062 10.941406 14.882812 L 12.441406 17.511719 C 12.558594 17.472656 12.683594 17.449219 12.816406 17.449219 Z M 12.816406 17.449219 " fill-opacity="1" fill-rule="nonzero"/><path fill="#ffffff" d="M 18.125 19.367188 C 18.519531 19.367188 18.839844 19.042969 18.839844 18.644531 C 18.839844 18.246094 18.519531 17.921875 18.125 17.921875 C 17.734375 17.921875 17.414062 18.246094 17.410156 18.644531 C 17.414062 19.042969 17.730469 19.367188 18.125 19.367188 Z M 18.125 19.367188 " fill-opacity="1" fill-rule="nonzero"/><path fill="#ffffff" d="M 12.101562 18.644531 C 12.101562 19.042969 12.421875 19.367188 12.816406 19.367188 C 13.210938 19.367188 13.53125 19.042969 13.53125 18.644531 C 13.53125 18.246094 13.210938 17.921875 12.816406 17.921875 C 12.421875 17.921875 12.101562 18.246094 12.101562 18.644531 Z M 12.101562 18.644531 " fill-opacity="1" fill-rule="nonzero"/><g clip-path="url(#ce2af2afd7)"><path fill="#ffffff" d="M 10.160156 13.261719 C 9.769531 13.261719 9.449219 13.589844 9.449219 13.988281 C 9.449219 14.386719 9.769531 14.710938 10.160156 14.710938 C 10.554688 14.710938 10.875 14.386719 10.875 13.988281 C 10.875 13.589844 10.554688 13.261719 10.160156 13.261719 Z M 10.160156 13.261719 " fill-opacity="1" fill-rule="nonzero"/></g><path fill="#ffffff" d="M 25.40625 13.988281 C 25.40625 14.386719 25.726562 14.710938 26.121094 14.710938 C 26.515625 14.710938 26.835938 14.386719 26.835938 13.988281 C 26.835938 13.589844 26.515625 13.261719 26.121094 13.261719 C 25.726562 13.261719 25.40625 13.589844 25.40625 13.988281 Z M 25.40625 13.988281 " fill-opacity="1" fill-rule="nonzero"/><path fill="#ffffff" d="M 20.78125 14.710938 C 21.171875 14.710938 21.492188 14.386719 21.496094 13.988281 C 21.496094 13.988281 21.496094 13.988281 21.496094 13.984375 C 21.492188 13.585938 21.171875 13.261719 20.78125 13.261719 C 20.386719 13.261719 20.066406 13.589844 20.066406 13.988281 C 20.066406 14.386719 20.386719 14.710938 20.78125 14.710938 Z M 20.78125 14.710938 " fill-opacity="1" fill-rule="nonzero"/><g clip-path="url(#916db476ac)"><path fill="#ffffff" d="M 18.125 10.054688 C 18.519531 10.054688 18.839844 9.730469 18.839844 9.332031 C 18.839844 8.929688 18.519531 8.605469 18.125 8.605469 C 17.734375 8.605469 17.414062 8.929688 17.410156 9.328125 C 17.410156 9.328125 17.410156 9.328125 17.410156 9.332031 C 17.414062 9.730469 17.730469 10.054688 18.125 10.054688 Z M 18.125 10.054688 " fill-opacity="1" fill-rule="nonzero"/></g><g clip-path="url(#aee08d5ed7)"><path fill="#ffffff" d="M 12.816406 10.054688 C 13.210938 10.054688 13.53125 9.730469 13.53125 9.332031 C 13.53125 8.929688 13.210938 8.605469 12.816406 8.605469 C 12.421875 8.605469 12.101562 8.929688 12.101562 9.332031 C 12.101562 9.730469 12.421875 10.054688 12.816406 10.054688 Z M 12.816406 10.054688 " fill-opacity="1" fill-rule="nonzero"/></g><path fill="#ffffff" d="M 21.496094 23.300781 C 21.492188 22.902344 21.171875 22.578125 20.78125 22.578125 C 20.386719 22.578125 20.066406 22.902344 20.066406 23.300781 C 20.066406 23.699219 20.386719 24.023438 20.78125 24.023438 C 21.171875 24.023438 21.492188 23.699219 21.496094 23.300781 Z M 21.496094 23.300781 " fill-opacity="1" fill-rule="nonzero"/><path fill="#ffffff" d="M 26.121094 22.578125 C 25.726562 22.578125 25.40625 22.902344 25.40625 23.300781 C 25.40625 23.699219 25.726562 24.023438 26.121094 24.023438 C 26.515625 24.023438 26.835938 23.699219 26.835938 23.300781 C 26.835938 22.902344 26.515625 22.578125 26.121094 22.578125 Z M 26.121094 22.578125 " fill-opacity="1" fill-rule="nonzero"/><path fill="#ffffff" d="M 27.566406 18.644531 C 27.566406 18.289062 27.71875 17.96875 27.964844 17.75 L 26.472656 15.128906 C 26.359375 15.164062 26.242188 15.179688 26.121094 15.179688 C 25.550781 15.179688 25.074219 14.769531 24.964844 14.222656 L 21.9375 14.222656 C 21.828125 14.769531 21.351562 15.179688 20.78125 15.179688 C 20.648438 15.179688 20.523438 15.160156 20.402344 15.117188 L 18.90625 17.75 C 19.148438 17.96875 19.304688 18.289062 19.304688 18.644531 C 19.304688 19 19.148438 19.320312 18.90625 19.539062 L 20.402344 22.167969 C 20.523438 22.128906 20.648438 22.105469 20.78125 22.105469 C 21.351562 22.105469 21.828125 22.519531 21.9375 23.066406 L 24.964844 23.066406 C 25.074219 22.519531 25.550781 22.105469 26.121094 22.105469 C 26.242188 22.105469 26.359375 22.125 26.472656 22.160156 L 27.964844 19.539062 C 27.71875 19.320312 27.566406 19 27.566406 18.644531 Z M 27.566406 18.644531 " fill-opacity="1" fill-rule="nonzero"/><g clip-path="url(#c6ed2b7526)"><path fill="#ffffff" d="M 28.742188 17.921875 C 28.351562 17.921875 28.03125 18.246094 28.03125 18.644531 C 28.03125 19.042969 28.351562 19.367188 28.742188 19.367188 C 29.136719 19.367188 29.457031 19.042969 29.457031 18.644531 C 29.457031 18.246094 29.136719 17.921875 28.742188 17.921875 Z M 28.742188 17.921875 " fill-opacity="1" fill-rule="nonzero"/></g><g clip-path="url(#56d05ed67c)"><path fill="#ffffff" d="M 18.125 27.234375 C 17.730469 27.234375 17.414062 27.558594 17.410156 27.957031 C 17.414062 28.355469 17.734375 28.679688 18.125 28.679688 C 18.519531 28.679688 18.839844 28.355469 18.839844 27.957031 C 18.839844 27.558594 18.519531 27.234375 18.125 27.234375 Z M 18.125 27.234375 " fill-opacity="1" fill-rule="nonzero"/></g><g clip-path="url(#4cea550ba7)"><path fill="#ffffff" d="M 12.816406 27.234375 C 12.421875 27.234375 12.101562 27.558594 12.101562 27.957031 C 12.101562 28.355469 12.421875 28.679688 12.816406 28.679688 C 13.210938 28.679688 13.53125 28.355469 13.53125 27.957031 C 13.53125 27.558594 13.210938 27.234375 12.816406 27.234375 Z M 12.816406 27.234375 " fill-opacity="1" fill-rule="nonzero"/></g><path fill="#ffffff" d="M 20 22.40625 L 18.503906 19.773438 C 18.382812 19.816406 18.257812 19.839844 18.125 19.839844 C 17.554688 19.839844 17.078125 19.425781 16.96875 18.878906 L 13.972656 18.878906 C 13.863281 19.425781 13.386719 19.839844 12.816406 19.839844 C 12.683594 19.839844 12.558594 19.816406 12.441406 19.773438 L 10.941406 22.40625 C 11.1875 22.625 11.339844 22.945312 11.339844 23.300781 C 11.339844 23.65625 11.1875 23.976562 10.941406 24.195312 L 12.441406 26.824219 C 12.558594 26.785156 12.683594 26.761719 12.816406 26.761719 C 13.386719 26.761719 13.863281 27.175781 13.972656 27.722656 L 16.96875 27.722656 C 17.078125 27.175781 17.554688 26.761719 18.125 26.761719 C 18.257812 26.761719 18.382812 26.785156 18.503906 26.824219 L 20 24.195312 C 19.757812 23.976562 19.601562 23.65625 19.601562 23.300781 C 19.601562 22.945312 19.757812 22.625 20 22.40625 Z M 20 22.40625 " fill-opacity="1" fill-rule="nonzero"/><g fill="#ffffff" fill-opacity="1"><g transform="translate(31.949767, 20.949703)"><g><path d="M 0.488281 -0.144531 L 0.488281 0 L 2.859375 0 C 3.378906 0 3.855469 -0.183594 4.203125 -0.515625 C 4.5625 -0.855469 4.769531 -1.304688 4.769531 -1.808594 C 4.769531 -2.316406 4.5625 -2.773438 4.203125 -3.113281 C 3.941406 -3.359375 3.609375 -3.523438 3.25 -3.589844 C 3.484375 -3.667969 3.6875 -3.796875 3.875 -3.960938 C 4.214844 -4.261719 4.398438 -4.710938 4.398438 -5.175781 C 4.398438 -5.644531 4.203125 -6.082031 3.875 -6.394531 C 3.542969 -6.707031 3.085938 -6.878906 2.609375 -6.878906 L 0.488281 -6.878906 L 0.488281 -6.734375 L 0.613281 -6.734375 C 0.789062 -6.726562 1.109375 -6.675781 1.109375 -6.5 L 1.109375 -0.378906 C 1.109375 -0.203125 0.789062 -0.15625 0.601562 -0.144531 Z M 2.6875 -3.621094 L 1.460938 -3.621094 L 1.460938 -6.5 C 1.460938 -6.675781 1.78125 -6.726562 1.957031 -6.734375 L 2.609375 -6.734375 C 3.386719 -6.734375 4.078125 -6.003906 4.078125 -5.175781 C 4.078125 -4.378906 3.433594 -3.667969 2.6875 -3.621094 Z M 2.859375 -0.144531 L 1.957031 -0.144531 C 1.78125 -0.15625 1.460938 -0.203125 1.460938 -0.378906 L 1.460938 -3.484375 L 2.597656 -3.484375 L 2.597656 -3.472656 L 2.609375 -3.472656 C 2.636719 -3.472656 2.667969 -3.484375 2.6875 -3.484375 L 2.851562 -3.484375 L 2.851562 -3.472656 L 2.859375 -3.472656 C 3.269531 -3.472656 3.667969 -3.300781 3.972656 -2.96875 C 4.261719 -2.65625 4.4375 -2.230469 4.4375 -1.808594 C 4.4375 -1.390625 4.261719 -0.972656 3.972656 -0.652344 C 3.667969 -0.320312 3.269531 -0.144531 2.859375 -0.144531 Z M 2.859375 -0.144531 "/></g></g></g><g fill="#ffffff" fill-opacity="1"><g transform="translate(37.204079, 20.949703)"><g><path d="M 0.234375 -0.144531 L 0.234375 0 L 1.828125 0 L 1.828125 -0.144531 C 1.488281 -0.144531 1.207031 -0.203125 1.207031 -0.378906 L 1.207031 -3.09375 L 2.539062 -3.09375 C 2.949219 -3.09375 3.484375 -2.5 3.609375 -2.015625 C 3.835938 -1.175781 3.914062 -0.566406 4.640625 0 L 5.207031 0 L 5.207031 -0.144531 C 4.46875 -0.144531 4.15625 -1.3125 4.007812 -1.925781 C 3.835938 -2.648438 3.425781 -2.878906 2.929688 -3.125 C 3.894531 -3.28125 4.632812 -4 4.632812 -5.023438 C 4.632812 -6.179688 3.6875 -6.878906 2.53125 -6.878906 L 0.234375 -6.878906 L 0.234375 -6.734375 C 0.574219 -6.734375 0.855469 -6.675781 0.855469 -6.511719 L 0.855469 -0.378906 C 0.855469 -0.203125 0.574219 -0.144531 0.234375 -0.144531 Z M 2.53125 -3.230469 L 1.207031 -3.230469 L 1.207031 -6.5 C 1.207031 -6.675781 1.527344 -6.726562 1.703125 -6.734375 L 2.53125 -6.734375 C 3.492188 -6.734375 4.28125 -5.984375 4.28125 -5.023438 C 4.28125 -4.046875 3.492188 -3.230469 2.53125 -3.230469 Z M 2.53125 -3.230469 "/></g></g></g><g fill="#ffffff" fill-opacity="1"><g transform="translate(43.042209, 20.949703)"><g><path d="M 3.386719 0.144531 L 3.472656 0.144531 C 5.101562 0.144531 6.375 -1.539062 6.375 -3.386719 C 6.375 -5.226562 5.082031 -6.917969 3.472656 -6.917969 L 3.386719 -6.917969 C 1.789062 -6.917969 0.488281 -5.253906 0.488281 -3.386719 C 0.488281 -1.546875 1.789062 0.144531 3.386719 0.144531 Z M 2.558594 -0.195312 C 1.558594 -0.679688 0.835938 -1.996094 0.835938 -3.386719 C 0.835938 -4.914062 1.710938 -6.335938 2.859375 -6.695312 C 3.046875 -6.753906 3.242188 -6.773438 3.425781 -6.773438 C 3.621094 -6.773438 3.804688 -6.746094 4 -6.695312 C 5.148438 -6.355469 6.015625 -4.914062 6.015625 -3.386719 C 6.015625 -1.996094 5.304688 -0.679688 4.300781 -0.195312 C 3.707031 0.0585938 3.152344 0.0585938 2.558594 -0.195312 Z M 2.558594 -0.195312 "/></g></g></g><g fill="#ffffff" fill-opacity="1"><g transform="translate(49.902013, 20.949703)"><g><path d="M 3.445312 -0.0976562 L 3.484375 0 L 3.550781 0 L 3.707031 -0.371094 L 4.730469 -3.242188 L 5.859375 -0.0976562 L 5.898438 0 L 5.976562 0 L 6.121094 -0.371094 L 8.320312 -6.519531 C 8.410156 -6.726562 8.894531 -6.746094 9.011719 -6.746094 L 9.042969 -6.746094 L 9.042969 -6.890625 L 7.445312 -6.890625 L 7.445312 -6.746094 L 7.550781 -6.746094 C 7.765625 -6.746094 8.253906 -6.714844 8.164062 -6.519531 L 6.054688 -0.554688 L 4.914062 -3.757812 L 5.898438 -6.519531 C 5.996094 -6.726562 6.480469 -6.746094 6.597656 -6.746094 L 6.628906 -6.746094 L 6.628906 -6.890625 L 5.03125 -6.890625 L 5.03125 -6.746094 L 5.128906 -6.746094 C 5.34375 -6.746094 5.828125 -6.714844 5.75 -6.519531 L 4.835938 -3.960938 L 3.933594 -6.519531 C 3.863281 -6.707031 4.261719 -6.746094 4.429688 -6.746094 L 4.496094 -6.746094 L 4.496094 -6.890625 L 2.898438 -6.890625 L 2.898438 -6.746094 L 2.96875 -6.746094 C 3.113281 -6.746094 3.464844 -6.707031 3.550781 -6.53125 L 4.660156 -3.445312 L 3.628906 -0.554688 L 1.519531 -6.519531 C 1.441406 -6.707031 1.847656 -6.746094 2.015625 -6.746094 L 2.082031 -6.746094 L 2.082031 -6.890625 L 0.488281 -6.890625 L 0.488281 -6.746094 L 0.546875 -6.746094 C 0.691406 -6.746094 1.050781 -6.707031 1.128906 -6.53125 Z M 3.445312 -0.0976562 "/></g></g></g><g fill="#ffffff" fill-opacity="1"><g transform="translate(59.427888, 20.949703)"><g><path d="M 0.488281 -0.136719 L 0.488281 0 L 1.867188 0 L 1.867188 -0.136719 C 1.527344 -0.136719 1.246094 -0.195312 1.246094 -0.371094 L 1.246094 -6.558594 L 5.402344 0 L 5.527344 0 L 5.527344 -6.511719 C 5.527344 -6.675781 5.808594 -6.746094 6.152344 -6.746094 L 6.152344 -6.878906 L 4.769531 -6.878906 L 4.769531 -6.746094 C 5.109375 -6.746094 5.390625 -6.675781 5.390625 -6.511719 L 5.390625 -0.691406 L 1.449219 -6.878906 L 0.488281 -6.878906 L 0.488281 -6.746094 C 0.828125 -6.746094 1.101562 -6.675781 1.101562 -6.511719 L 1.101562 -0.371094 C 1.101562 -0.195312 0.828125 -0.136719 0.488281 -0.136719 Z M 0.488281 -0.136719 "/></g></g></g><g fill="#ffffff" fill-opacity="1"><g transform="translate(66.082924, 20.949703)"><g><path d="M 3.90625 0.121094 C 5.886719 0.121094 7.496094 -1.4375 7.496094 -3.371094 C 7.496094 -5.296875 5.886719 -6.855469 3.90625 -6.855469 C 1.910156 -6.855469 0.300781 -5.296875 0.300781 -3.371094 C 0.300781 -1.4375 1.910156 0.121094 3.90625 0.121094 Z M 3.90625 -0.0351562 C 2.683594 -0.0351562 2.25 -1.476562 2.25 -3.371094 C 2.25 -5.257812 2.683594 -6.699219 3.90625 -6.699219 C 5.042969 -6.699219 5.550781 -5.257812 5.550781 -3.371094 C 5.550781 -1.476562 5.125 -0.0351562 3.90625 -0.0351562 Z M 3.90625 -0.0351562 "/></g></g></g><g fill="#ffffff" fill-opacity="1"><g transform="translate(73.877982, 20.949703)"><g><path d="M 3.53125 0.132812 L 6.347656 -6.46875 L 6.347656 0 L 8.171875 0 L 8.171875 -6.769531 L 6.347656 -6.769531 L 4.558594 -2.503906 L 2.597656 -6.769531 L 0.605469 -6.769531 L 0.605469 0 L 0.726562 0 L 0.726562 -6.492188 Z M 3.53125 0.132812 "/></g></g></g><g fill="#ffffff" fill-opacity="1"><g transform="translate(82.651953, 20.949703)"><g><path d="M 0.605469 0 L 2.210938 0 L 2.210938 -6.769531 L 0.605469 -6.769531 Z M 0.605469 0 "/></g></g></g><g fill="#ffffff" fill-opacity="1"><g transform="translate(85.467839, 20.949703)"><g><path d="M 3.90625 0.121094 L 3.917969 0.121094 C 4.738281 0.121094 5.804688 -0.195312 6.382812 -1.269531 L 6.238281 -1.269531 C 5.476562 -0.0976562 4.558594 -0.0351562 4.039062 -0.0351562 C 2.757812 -0.0351562 2.285156 -1.4375 2.285156 -3.371094 C 2.285156 -4.992188 2.636719 -6.699219 4 -6.699219 C 4.605469 -6.699219 5.101562 -6.273438 4.957031 -5.476562 C 4.882812 -5.066406 4.496094 -5.015625 4.496094 -5.015625 C 4.496094 -4.484375 4.910156 -4.015625 5.550781 -4.015625 C 6.058594 -4.015625 6.445312 -4.351562 6.445312 -4.871094 C 6.445312 -5.910156 5.125 -6.855469 3.941406 -6.855469 C 1.910156 -6.855469 0.300781 -5.28125 0.300781 -3.359375 C 0.300781 -1.4375 1.910156 0.121094 3.90625 0.121094 Z M 3.90625 0.121094 "/></g></g></g><g fill="#ffffff" fill-opacity="1"><g transform="translate(92.211468, 20.949703)"><g><path d="M 3.265625 0.121094 C 4.847656 0.121094 6.226562 -0.714844 6.03125 -2.222656 C 5.863281 -4.015625 1.957031 -4.148438 1.957031 -5.789062 C 1.957031 -6.445312 2.515625 -6.699219 3.15625 -6.699219 C 3.867188 -6.699219 4.339844 -6.394531 4.339844 -5.910156 C 4.339844 -5.308594 3.929688 -5.257812 3.929688 -5.257812 C 3.929688 -4.835938 4.269531 -4.449219 4.789062 -4.449219 C 5.199219 -4.449219 5.511719 -4.714844 5.511719 -5.136719 C 5.511719 -6.226562 4.351562 -6.867188 3.132812 -6.867188 C 1.632812 -6.867188 0.363281 -6.191406 0.53125 -4.679688 C 0.75 -2.707031 4.605469 -2.464844 4.605469 -0.941406 C 4.605469 -0.207031 3.699219 -0.0351562 3.191406 -0.0351562 C 2.527344 -0.0351562 1.742188 -0.328125 1.742188 -1.027344 C 1.742188 -1.089844 1.742188 -1.148438 1.753906 -1.222656 C 1.8125 -1.597656 2.175781 -1.644531 2.175781 -1.644531 C 2.175781 -2.140625 1.789062 -2.574219 1.195312 -2.574219 C 0.726562 -2.574219 0.363281 -2.261719 0.363281 -1.777344 C 0.363281 -0.59375 1.777344 0.121094 3.265625 0.121094 Z M 3.265625 0.121094 "/></g></g></g><g fill="#ffffff" fill-opacity="1"><g transform="translate(34.860226, 26.520465)"><g><path d="M 0.21875 -1.421875 C 0.21875 -1.566406 0.234375 -1.707031 0.265625 -1.84375 C 0.304688 -1.976562 0.359375 -2.101562 0.421875 -2.21875 C 0.492188 -2.332031 0.578125 -2.4375 0.671875 -2.53125 C 0.773438 -2.625 0.882812 -2.703125 1 -2.765625 C 1.125 -2.828125 1.253906 -2.875 1.390625 -2.90625 C 1.523438 -2.9375 1.664062 -2.953125 1.8125 -2.953125 C 1.9375 -2.953125 2.054688 -2.941406 2.171875 -2.921875 C 2.285156 -2.898438 2.40625 -2.875 2.53125 -2.84375 C 2.550781 -2.84375 2.570312 -2.835938 2.59375 -2.828125 C 2.625 -2.816406 2.644531 -2.804688 2.65625 -2.796875 C 2.675781 -2.796875 2.691406 -2.789062 2.703125 -2.78125 C 2.722656 -2.78125 2.738281 -2.78125 2.75 -2.78125 C 2.757812 -2.78125 2.769531 -2.78125 2.78125 -2.78125 C 2.800781 -2.789062 2.8125 -2.796875 2.8125 -2.796875 L 2.90625 -2.796875 C 2.925781 -2.796875 2.9375 -2.78125 2.9375 -2.75 L 2.9375 -2.09375 C 2.9375 -2.082031 2.929688 -2.078125 2.921875 -2.078125 C 2.921875 -2.078125 2.910156 -2.078125 2.890625 -2.078125 C 2.878906 -2.078125 2.863281 -2.078125 2.84375 -2.078125 C 2.832031 -2.078125 2.828125 -2.078125 2.828125 -2.078125 C 2.816406 -2.085938 2.804688 -2.097656 2.796875 -2.109375 C 2.796875 -2.117188 2.789062 -2.128906 2.78125 -2.140625 C 2.769531 -2.160156 2.757812 -2.175781 2.75 -2.1875 C 2.75 -2.195312 2.75 -2.203125 2.75 -2.203125 C 2.695312 -2.304688 2.640625 -2.390625 2.578125 -2.453125 C 2.515625 -2.523438 2.445312 -2.582031 2.375 -2.625 C 2.300781 -2.675781 2.21875 -2.710938 2.125 -2.734375 C 2.039062 -2.753906 1.945312 -2.765625 1.84375 -2.765625 C 1.71875 -2.765625 1.601562 -2.75 1.5 -2.71875 C 1.40625 -2.6875 1.316406 -2.640625 1.234375 -2.578125 C 1.160156 -2.523438 1.097656 -2.460938 1.046875 -2.390625 C 1.003906 -2.316406 0.960938 -2.234375 0.921875 -2.140625 C 0.890625 -2.046875 0.867188 -1.945312 0.859375 -1.84375 C 0.847656 -1.75 0.84375 -1.644531 0.84375 -1.53125 C 0.84375 -1.414062 0.847656 -1.300781 0.859375 -1.1875 C 0.878906 -1.070312 0.90625 -0.960938 0.9375 -0.859375 C 0.976562 -0.765625 1.023438 -0.671875 1.078125 -0.578125 C 1.140625 -0.492188 1.210938 -0.421875 1.296875 -0.359375 C 1.378906 -0.296875 1.472656 -0.242188 1.578125 -0.203125 C 1.679688 -0.171875 1.804688 -0.15625 1.953125 -0.15625 C 2.066406 -0.15625 2.171875 -0.171875 2.265625 -0.203125 C 2.367188 -0.234375 2.460938 -0.28125 2.546875 -0.34375 C 2.628906 -0.40625 2.703125 -0.472656 2.765625 -0.546875 C 2.828125 -0.617188 2.882812 -0.695312 2.9375 -0.78125 C 2.9375 -0.789062 2.9375 -0.796875 2.9375 -0.796875 C 2.945312 -0.796875 2.953125 -0.796875 2.953125 -0.796875 L 3.0625 -0.796875 C 3.0625 -0.796875 3.0625 -0.789062 3.0625 -0.78125 C 3.070312 -0.78125 3.078125 -0.773438 3.078125 -0.765625 C 3.078125 -0.765625 3.070312 -0.753906 3.0625 -0.734375 C 3.0625 -0.722656 3.054688 -0.710938 3.046875 -0.703125 L 2.765625 -0.078125 C 2.765625 -0.078125 2.757812 -0.0703125 2.75 -0.0625 C 2.707031 -0.0625 2.679688 -0.0625 2.671875 -0.0625 C 2.660156 -0.0703125 2.648438 -0.078125 2.640625 -0.078125 C 2.597656 -0.078125 2.539062 -0.0664062 2.46875 -0.046875 C 2.40625 -0.0351562 2.332031 -0.0195312 2.25 0 C 2.175781 0.0078125 2.097656 0.0195312 2.015625 0.03125 C 1.941406 0.0507812 1.875 0.0625 1.8125 0.0625 C 1.664062 0.0625 1.523438 0.046875 1.390625 0.015625 C 1.253906 -0.015625 1.125 -0.0625 1 -0.125 C 0.882812 -0.1875 0.78125 -0.257812 0.6875 -0.34375 C 0.59375 -0.425781 0.507812 -0.519531 0.4375 -0.625 C 0.363281 -0.738281 0.304688 -0.859375 0.265625 -0.984375 C 0.234375 -1.117188 0.21875 -1.265625 0.21875 -1.421875 Z M 0.21875 -1.421875 "/></g></g><g transform="translate(38.097518, 26.520465)"><g><path d="M 0.09375 -0.109375 C 0.09375 -0.117188 0.0976562 -0.125 0.109375 -0.125 C 0.117188 -0.125 0.128906 -0.125 0.140625 -0.125 C 0.160156 -0.125 0.179688 -0.125 0.203125 -0.125 C 0.222656 -0.132812 0.238281 -0.140625 0.25 -0.140625 C 0.269531 -0.148438 0.28125 -0.15625 0.28125 -0.15625 C 0.363281 -0.164062 0.421875 -0.191406 0.453125 -0.234375 C 0.484375 -0.273438 0.5 -0.328125 0.5 -0.390625 L 0.5 -2.453125 C 0.5 -2.523438 0.484375 -2.578125 0.453125 -2.609375 C 0.421875 -2.648438 0.382812 -2.679688 0.34375 -2.703125 C 0.3125 -2.722656 0.273438 -2.734375 0.234375 -2.734375 C 0.203125 -2.742188 0.179688 -2.75 0.171875 -2.75 L 0.09375 -2.75 C 0.09375 -2.75 0.0859375 -2.75 0.078125 -2.75 C 0.078125 -2.757812 0.078125 -2.765625 0.078125 -2.765625 L 0.078125 -2.859375 C 0.078125 -2.867188 0.0820312 -2.875 0.09375 -2.875 C 0.101562 -2.875 0.113281 -2.875 0.125 -2.875 C 0.144531 -2.875 0.171875 -2.875 0.203125 -2.875 C 0.234375 -2.875 0.273438 -2.875 0.328125 -2.875 C 0.398438 -2.875 0.476562 -2.875 0.5625 -2.875 C 0.644531 -2.882812 0.726562 -2.890625 0.8125 -2.890625 C 0.90625 -2.890625 0.992188 -2.890625 1.078125 -2.890625 C 1.160156 -2.898438 1.238281 -2.90625 1.3125 -2.90625 L 1.515625 -2.90625 C 1.628906 -2.90625 1.738281 -2.882812 1.84375 -2.84375 C 1.957031 -2.8125 2.054688 -2.757812 2.140625 -2.6875 C 2.234375 -2.613281 2.304688 -2.523438 2.359375 -2.421875 C 2.421875 -2.316406 2.453125 -2.191406 2.453125 -2.046875 C 2.453125 -1.960938 2.441406 -1.882812 2.421875 -1.8125 C 2.398438 -1.738281 2.367188 -1.675781 2.328125 -1.625 C 2.285156 -1.570312 2.234375 -1.523438 2.171875 -1.484375 C 2.109375 -1.441406 2.046875 -1.40625 1.984375 -1.375 L 2.59375 -0.40625 C 2.644531 -0.320312 2.707031 -0.242188 2.78125 -0.171875 C 2.851562 -0.0976562 2.9375 -0.0507812 3.03125 -0.03125 C 3.039062 -0.03125 3.046875 -0.0234375 3.046875 -0.015625 C 3.046875 -0.015625 3.046875 -0.0078125 3.046875 0 C 3.046875 0.0195312 3.039062 0.03125 3.03125 0.03125 C 3.019531 0.0390625 3.003906 0.046875 2.984375 0.046875 C 2.921875 0.046875 2.851562 0.0390625 2.78125 0.03125 C 2.707031 0.03125 2.632812 0.0195312 2.5625 0 C 2.488281 -0.0078125 2.421875 -0.03125 2.359375 -0.0625 C 2.296875 -0.09375 2.238281 -0.128906 2.1875 -0.171875 C 2.144531 -0.203125 2.101562 -0.242188 2.0625 -0.296875 C 2.019531 -0.359375 1.972656 -0.421875 1.921875 -0.484375 C 1.878906 -0.554688 1.832031 -0.628906 1.78125 -0.703125 C 1.738281 -0.773438 1.695312 -0.847656 1.65625 -0.921875 C 1.613281 -0.992188 1.570312 -1.054688 1.53125 -1.109375 C 1.5 -1.171875 1.46875 -1.222656 1.4375 -1.265625 L 1.125 -1.296875 C 1.125 -1.296875 1.117188 -1.296875 1.109375 -1.296875 C 1.097656 -1.296875 1.085938 -1.289062 1.078125 -1.28125 C 1.078125 -1.28125 1.078125 -1.273438 1.078125 -1.265625 L 1.078125 -0.390625 C 1.078125 -0.359375 1.082031 -0.328125 1.09375 -0.296875 C 1.101562 -0.265625 1.117188 -0.238281 1.140625 -0.21875 C 1.160156 -0.207031 1.1875 -0.191406 1.21875 -0.171875 C 1.257812 -0.160156 1.304688 -0.15625 1.359375 -0.15625 C 1.367188 -0.15625 1.378906 -0.148438 1.390625 -0.140625 C 1.410156 -0.140625 1.425781 -0.132812 1.4375 -0.125 C 1.457031 -0.125 1.476562 -0.125 1.5 -0.125 C 1.519531 -0.125 1.535156 -0.125 1.546875 -0.125 C 1.546875 -0.125 1.546875 -0.117188 1.546875 -0.109375 C 1.554688 -0.109375 1.5625 -0.109375 1.5625 -0.109375 L 1.5625 -0.015625 C 1.5625 -0.015625 1.554688 -0.0078125 1.546875 0 L 0.109375 0 C 0.0976562 0 0.09375 -0.0078125 0.09375 -0.03125 C 0.09375 -0.0507812 0.09375 -0.0664062 0.09375 -0.078125 Z M 1.078125 -1.5 C 1.078125 -1.488281 1.078125 -1.476562 1.078125 -1.46875 C 1.085938 -1.457031 1.101562 -1.453125 1.125 -1.453125 C 1.132812 -1.453125 1.148438 -1.445312 1.171875 -1.4375 C 1.191406 -1.4375 1.226562 -1.4375 1.28125 -1.4375 C 1.394531 -1.4375 1.488281 -1.453125 1.5625 -1.484375 C 1.644531 -1.523438 1.707031 -1.578125 1.75 -1.640625 C 1.800781 -1.703125 1.832031 -1.769531 1.84375 -1.84375 C 1.863281 -1.925781 1.875 -2.015625 1.875 -2.109375 C 1.875 -2.191406 1.859375 -2.273438 1.828125 -2.359375 C 1.796875 -2.441406 1.753906 -2.507812 1.703125 -2.5625 C 1.660156 -2.625 1.601562 -2.671875 1.53125 -2.703125 C 1.457031 -2.742188 1.378906 -2.765625 1.296875 -2.765625 C 1.273438 -2.765625 1.257812 -2.765625 1.25 -2.765625 C 1.238281 -2.765625 1.226562 -2.765625 1.21875 -2.765625 C 1.207031 -2.765625 1.191406 -2.765625 1.171875 -2.765625 C 1.160156 -2.765625 1.144531 -2.765625 1.125 -2.765625 C 1.113281 -2.765625 1.101562 -2.757812 1.09375 -2.75 C 1.082031 -2.75 1.078125 -2.742188 1.078125 -2.734375 Z M 1.078125 -1.5 "/></g></g><g transform="translate(41.171825, 26.520465)"><g><path d="M 1.453125 -1 C 1.453125 -1.007812 1.445312 -1.019531 1.4375 -1.03125 L 0.609375 -2.359375 C 0.585938 -2.390625 0.5625 -2.425781 0.53125 -2.46875 C 0.507812 -2.507812 0.484375 -2.546875 0.453125 -2.578125 C 0.421875 -2.609375 0.382812 -2.632812 0.34375 -2.65625 C 0.3125 -2.6875 0.269531 -2.707031 0.21875 -2.71875 C 0.21875 -2.71875 0.207031 -2.71875 0.1875 -2.71875 C 0.175781 -2.726562 0.160156 -2.734375 0.140625 -2.734375 C 0.128906 -2.734375 0.113281 -2.734375 0.09375 -2.734375 C 0.0820312 -2.742188 0.0703125 -2.75 0.0625 -2.75 C 0.0507812 -2.75 0.0390625 -2.753906 0.03125 -2.765625 C 0.0195312 -2.785156 0.015625 -2.800781 0.015625 -2.8125 C 0.015625 -2.8125 0.015625 -2.816406 0.015625 -2.828125 C 0.015625 -2.835938 0.015625 -2.84375 0.015625 -2.84375 C 0.015625 -2.851562 0.015625 -2.859375 0.015625 -2.859375 C 0.0234375 -2.867188 0.03125 -2.875 0.03125 -2.875 L 1.421875 -2.875 C 1.429688 -2.875 1.4375 -2.863281 1.4375 -2.84375 C 1.445312 -2.832031 1.453125 -2.820312 1.453125 -2.8125 C 1.453125 -2.800781 1.453125 -2.785156 1.453125 -2.765625 C 1.453125 -2.753906 1.445312 -2.75 1.4375 -2.75 C 1.394531 -2.75 1.359375 -2.742188 1.328125 -2.734375 C 1.296875 -2.734375 1.265625 -2.726562 1.234375 -2.71875 C 1.210938 -2.707031 1.195312 -2.691406 1.1875 -2.671875 C 1.175781 -2.648438 1.171875 -2.625 1.171875 -2.59375 C 1.171875 -2.5625 1.175781 -2.53125 1.1875 -2.5 L 1.8125 -1.5 C 1.820312 -1.476562 1.828125 -1.460938 1.828125 -1.453125 C 1.835938 -1.453125 1.847656 -1.453125 1.859375 -1.453125 C 1.867188 -1.453125 1.878906 -1.457031 1.890625 -1.46875 C 1.898438 -1.476562 1.910156 -1.492188 1.921875 -1.515625 L 2.40625 -2.34375 C 2.425781 -2.375 2.445312 -2.40625 2.46875 -2.4375 C 2.488281 -2.476562 2.5 -2.519531 2.5 -2.5625 C 2.5 -2.601562 2.492188 -2.632812 2.484375 -2.65625 C 2.472656 -2.675781 2.457031 -2.691406 2.4375 -2.703125 C 2.414062 -2.722656 2.390625 -2.734375 2.359375 -2.734375 C 2.328125 -2.742188 2.296875 -2.75 2.265625 -2.75 C 2.242188 -2.75 2.234375 -2.753906 2.234375 -2.765625 C 2.234375 -2.785156 2.234375 -2.800781 2.234375 -2.8125 C 2.234375 -2.820312 2.234375 -2.832031 2.234375 -2.84375 C 2.234375 -2.863281 2.242188 -2.875 2.265625 -2.875 L 3.296875 -2.875 C 3.304688 -2.875 3.3125 -2.863281 3.3125 -2.84375 C 3.3125 -2.832031 3.3125 -2.820312 3.3125 -2.8125 C 3.3125 -2.800781 3.304688 -2.789062 3.296875 -2.78125 C 3.296875 -2.769531 3.285156 -2.757812 3.265625 -2.75 C 3.253906 -2.75 3.238281 -2.742188 3.21875 -2.734375 C 3.207031 -2.734375 3.195312 -2.734375 3.1875 -2.734375 C 3.125 -2.722656 3.066406 -2.695312 3.015625 -2.65625 C 2.960938 -2.625 2.914062 -2.582031 2.875 -2.53125 C 2.863281 -2.519531 2.851562 -2.503906 2.84375 -2.484375 C 2.832031 -2.472656 2.820312 -2.46875 2.8125 -2.46875 L 2.03125 -1.109375 L 2.03125 -0.390625 C 2.03125 -0.316406 2.050781 -0.253906 2.09375 -0.203125 C 2.132812 -0.160156 2.207031 -0.132812 2.3125 -0.125 C 2.332031 -0.125 2.351562 -0.125 2.375 -0.125 C 2.394531 -0.125 2.414062 -0.125 2.4375 -0.125 C 2.4375 -0.125 2.4375 -0.117188 2.4375 -0.109375 C 2.445312 -0.109375 2.453125 -0.109375 2.453125 -0.109375 L 2.453125 -0.015625 C 2.453125 -0.015625 2.445312 -0.0078125 2.4375 0 L 1.046875 0 C 1.035156 0 1.03125 0 1.03125 0 C 1.03125 -0.0078125 1.03125 -0.015625 1.03125 -0.015625 L 1.03125 -0.109375 C 1.03125 -0.117188 1.035156 -0.125 1.046875 -0.125 C 1.054688 -0.125 1.070312 -0.125 1.09375 -0.125 C 1.125 -0.125 1.144531 -0.125 1.15625 -0.125 C 1.269531 -0.132812 1.347656 -0.160156 1.390625 -0.203125 C 1.429688 -0.253906 1.453125 -0.316406 1.453125 -0.390625 Z M 1.453125 -1 "/></g></g><g transform="translate(44.500796, 26.520465)"><g><path d="M 0.203125 0 C 0.191406 0 0.1875 -0.00390625 0.1875 -0.015625 L 0.1875 -0.109375 C 0.1875 -0.117188 0.191406 -0.125 0.203125 -0.125 C 0.242188 -0.125 0.285156 -0.128906 0.328125 -0.140625 C 0.367188 -0.148438 0.40625 -0.164062 0.4375 -0.1875 C 0.46875 -0.21875 0.488281 -0.25 0.5 -0.28125 C 0.519531 -0.3125 0.53125 -0.347656 0.53125 -0.390625 L 0.53125 -2.453125 C 0.53125 -2.523438 0.523438 -2.578125 0.515625 -2.609375 C 0.503906 -2.648438 0.484375 -2.679688 0.453125 -2.703125 C 0.429688 -2.722656 0.398438 -2.734375 0.359375 -2.734375 C 0.316406 -2.742188 0.269531 -2.75 0.21875 -2.75 L 0.125 -2.75 C 0.113281 -2.75 0.101562 -2.753906 0.09375 -2.765625 C 0.0820312 -2.785156 0.078125 -2.800781 0.078125 -2.8125 C 0.078125 -2.820312 0.078125 -2.832031 0.078125 -2.84375 C 0.0859375 -2.863281 0.0976562 -2.875 0.109375 -2.875 C 0.117188 -2.875 0.132812 -2.875 0.15625 -2.875 C 0.175781 -2.875 0.203125 -2.875 0.234375 -2.875 C 0.265625 -2.875 0.304688 -2.875 0.359375 -2.875 C 0.429688 -2.875 0.507812 -2.875 0.59375 -2.875 C 0.6875 -2.882812 0.773438 -2.890625 0.859375 -2.890625 C 0.941406 -2.890625 1.023438 -2.890625 1.109375 -2.890625 C 1.203125 -2.898438 1.285156 -2.90625 1.359375 -2.90625 L 1.640625 -2.90625 C 1.753906 -2.90625 1.859375 -2.882812 1.953125 -2.84375 C 2.054688 -2.8125 2.148438 -2.757812 2.234375 -2.6875 C 2.316406 -2.613281 2.378906 -2.523438 2.421875 -2.421875 C 2.472656 -2.316406 2.5 -2.191406 2.5 -2.046875 C 2.5 -1.960938 2.484375 -1.878906 2.453125 -1.796875 C 2.429688 -1.722656 2.398438 -1.648438 2.359375 -1.578125 C 2.316406 -1.515625 2.265625 -1.457031 2.203125 -1.40625 C 2.148438 -1.351562 2.09375 -1.304688 2.03125 -1.265625 C 1.96875 -1.234375 1.898438 -1.207031 1.828125 -1.1875 C 1.773438 -1.164062 1.722656 -1.15625 1.671875 -1.15625 C 1.660156 -1.15625 1.65625 -1.15625 1.65625 -1.15625 L 1.15625 -1.1875 C 1.15625 -1.1875 1.148438 -1.1875 1.140625 -1.1875 C 1.128906 -1.1875 1.125 -1.1875 1.125 -1.1875 C 1.125 -1.175781 1.117188 -1.171875 1.109375 -1.171875 C 1.109375 -1.171875 1.109375 -1.164062 1.109375 -1.15625 L 1.109375 -0.390625 C 1.109375 -0.335938 1.125 -0.289062 1.15625 -0.25 C 1.1875 -0.21875 1.222656 -0.191406 1.265625 -0.171875 C 1.316406 -0.160156 1.367188 -0.148438 1.421875 -0.140625 C 1.484375 -0.128906 1.546875 -0.125 1.609375 -0.125 C 1.617188 -0.125 1.625 -0.117188 1.625 -0.109375 L 1.625 -0.015625 C 1.625 -0.015625 1.617188 -0.0078125 1.609375 0 Z M 1.125 -1.421875 C 1.125 -1.410156 1.125 -1.398438 1.125 -1.390625 C 1.132812 -1.378906 1.144531 -1.375 1.15625 -1.375 C 1.164062 -1.375 1.175781 -1.375 1.1875 -1.375 C 1.195312 -1.375 1.210938 -1.367188 1.234375 -1.359375 C 1.253906 -1.359375 1.273438 -1.359375 1.296875 -1.359375 C 1.316406 -1.359375 1.335938 -1.359375 1.359375 -1.359375 C 1.453125 -1.359375 1.53125 -1.375 1.59375 -1.40625 C 1.664062 -1.445312 1.722656 -1.5 1.765625 -1.5625 C 1.816406 -1.632812 1.851562 -1.710938 1.875 -1.796875 C 1.894531 -1.890625 1.90625 -1.992188 1.90625 -2.109375 C 1.90625 -2.328125 1.859375 -2.488281 1.765625 -2.59375 C 1.679688 -2.695312 1.554688 -2.75 1.390625 -2.75 C 1.367188 -2.75 1.347656 -2.75 1.328125 -2.75 C 1.316406 -2.75 1.300781 -2.75 1.28125 -2.75 C 1.257812 -2.75 1.238281 -2.75 1.21875 -2.75 C 1.207031 -2.75 1.191406 -2.75 1.171875 -2.75 C 1.160156 -2.75 1.144531 -2.742188 1.125 -2.734375 C 1.113281 -2.734375 1.109375 -2.726562 1.109375 -2.71875 L 1.109375 -1.484375 Z M 1.125 -1.421875 "/></g></g><g transform="translate(47.151341, 26.520465)"><g><path d="M 1.234375 -2.5625 C 1.234375 -2.59375 1.226562 -2.609375 1.21875 -2.609375 C 1.207031 -2.609375 1.191406 -2.613281 1.171875 -2.625 L 0.484375 -2.625 C 0.429688 -2.601562 0.390625 -2.578125 0.359375 -2.546875 C 0.335938 -2.523438 0.316406 -2.492188 0.296875 -2.453125 C 0.285156 -2.410156 0.273438 -2.367188 0.265625 -2.328125 C 0.253906 -2.285156 0.242188 -2.242188 0.234375 -2.203125 C 0.234375 -2.179688 0.234375 -2.160156 0.234375 -2.140625 C 0.234375 -2.128906 0.226562 -2.125 0.21875 -2.125 C 0.21875 -2.113281 0.210938 -2.109375 0.203125 -2.109375 L 0.140625 -2.109375 C 0.128906 -2.109375 0.125 -2.113281 0.125 -2.125 L 0.125 -2.1875 L 0.203125 -2.890625 C 0.203125 -2.898438 0.207031 -2.910156 0.21875 -2.921875 C 0.226562 -2.941406 0.242188 -2.953125 0.265625 -2.953125 C 0.273438 -2.953125 0.285156 -2.945312 0.296875 -2.9375 C 0.304688 -2.9375 0.3125 -2.929688 0.3125 -2.921875 C 0.320312 -2.910156 0.332031 -2.898438 0.34375 -2.890625 C 0.351562 -2.890625 0.363281 -2.890625 0.375 -2.890625 C 0.382812 -2.878906 0.394531 -2.875 0.40625 -2.875 C 0.425781 -2.875 0.445312 -2.875 0.46875 -2.875 L 2.59375 -2.875 C 2.613281 -2.875 2.628906 -2.875 2.640625 -2.875 C 2.660156 -2.875 2.675781 -2.878906 2.6875 -2.890625 C 2.695312 -2.890625 2.703125 -2.890625 2.703125 -2.890625 C 2.710938 -2.898438 2.722656 -2.910156 2.734375 -2.921875 C 2.742188 -2.929688 2.753906 -2.9375 2.765625 -2.9375 C 2.773438 -2.945312 2.785156 -2.953125 2.796875 -2.953125 C 2.816406 -2.953125 2.828125 -2.941406 2.828125 -2.921875 C 2.835938 -2.910156 2.847656 -2.898438 2.859375 -2.890625 L 2.921875 -2.1875 L 2.921875 -2.125 C 2.921875 -2.113281 2.921875 -2.109375 2.921875 -2.109375 L 2.84375 -2.109375 C 2.84375 -2.109375 2.835938 -2.113281 2.828125 -2.125 C 2.828125 -2.125 2.828125 -2.128906 2.828125 -2.140625 C 2.828125 -2.160156 2.820312 -2.179688 2.8125 -2.203125 C 2.8125 -2.242188 2.804688 -2.285156 2.796875 -2.328125 C 2.785156 -2.367188 2.769531 -2.410156 2.75 -2.453125 C 2.738281 -2.492188 2.71875 -2.523438 2.6875 -2.546875 C 2.65625 -2.578125 2.617188 -2.601562 2.578125 -2.625 L 1.875 -2.625 C 1.863281 -2.613281 1.847656 -2.609375 1.828125 -2.609375 C 1.816406 -2.609375 1.8125 -2.59375 1.8125 -2.5625 L 1.8125 -0.390625 C 1.8125 -0.359375 1.820312 -0.320312 1.84375 -0.28125 C 1.863281 -0.25 1.890625 -0.222656 1.921875 -0.203125 C 1.960938 -0.179688 2.003906 -0.160156 2.046875 -0.140625 C 2.097656 -0.128906 2.148438 -0.117188 2.203125 -0.109375 C 2.210938 -0.109375 2.226562 -0.109375 2.25 -0.109375 C 2.28125 -0.109375 2.300781 -0.109375 2.3125 -0.109375 C 2.320312 -0.109375 2.328125 -0.101562 2.328125 -0.09375 C 2.335938 -0.09375 2.34375 -0.09375 2.34375 -0.09375 L 2.34375 -0.015625 C 2.34375 -0.015625 2.335938 -0.0078125 2.328125 0 C 2.328125 0 2.320312 0 2.3125 0 L 0.734375 0 C 0.734375 0 0.726562 0 0.71875 0 C 0.71875 -0.0078125 0.71875 -0.015625 0.71875 -0.015625 L 0.71875 -0.09375 C 0.726562 -0.101562 0.734375 -0.109375 0.734375 -0.109375 C 0.753906 -0.109375 0.773438 -0.109375 0.796875 -0.109375 C 0.816406 -0.109375 0.835938 -0.109375 0.859375 -0.109375 C 0.910156 -0.117188 0.957031 -0.128906 1 -0.140625 C 1.050781 -0.160156 1.09375 -0.179688 1.125 -0.203125 C 1.15625 -0.222656 1.179688 -0.25 1.203125 -0.28125 C 1.222656 -0.320312 1.234375 -0.359375 1.234375 -0.390625 Z M 1.234375 -2.5625 "/></g></g><g transform="translate(50.211386, 26.520465)"><g><path d="M 1.84375 0.046875 C 1.789062 0.046875 1.726562 0.0390625 1.65625 0.03125 C 1.582031 0.03125 1.503906 0.0195312 1.421875 0 C 1.335938 -0.0195312 1.25 -0.046875 1.15625 -0.078125 C 1.0625 -0.117188 0.96875 -0.164062 0.875 -0.21875 C 0.789062 -0.28125 0.707031 -0.347656 0.625 -0.421875 C 0.550781 -0.492188 0.484375 -0.578125 0.421875 -0.671875 C 0.359375 -0.773438 0.304688 -0.890625 0.265625 -1.015625 C 0.234375 -1.148438 0.21875 -1.296875 0.21875 -1.453125 C 0.21875 -1.597656 0.238281 -1.734375 0.28125 -1.859375 C 0.320312 -1.984375 0.378906 -2.101562 0.453125 -2.21875 C 0.523438 -2.332031 0.609375 -2.429688 0.703125 -2.515625 C 0.804688 -2.609375 0.921875 -2.6875 1.046875 -2.75 C 1.179688 -2.820312 1.320312 -2.875 1.46875 -2.90625 C 1.613281 -2.9375 1.769531 -2.953125 1.9375 -2.953125 C 2.070312 -2.953125 2.207031 -2.9375 2.34375 -2.90625 C 2.476562 -2.875 2.601562 -2.828125 2.71875 -2.765625 C 2.832031 -2.703125 2.9375 -2.625 3.03125 -2.53125 C 3.125 -2.445312 3.203125 -2.347656 3.265625 -2.234375 C 3.335938 -2.128906 3.394531 -2.015625 3.4375 -1.890625 C 3.476562 -1.765625 3.5 -1.632812 3.5 -1.5 C 3.5 -1.363281 3.476562 -1.234375 3.4375 -1.109375 C 3.40625 -0.984375 3.351562 -0.863281 3.28125 -0.75 C 3.207031 -0.632812 3.117188 -0.523438 3.015625 -0.421875 C 2.921875 -0.328125 2.8125 -0.242188 2.6875 -0.171875 C 2.570312 -0.0976562 2.441406 -0.0390625 2.296875 0 C 2.148438 0.03125 2 0.046875 1.84375 0.046875 Z M 0.828125 -1.53125 C 0.828125 -1.414062 0.835938 -1.300781 0.859375 -1.1875 C 0.878906 -1.082031 0.910156 -0.976562 0.953125 -0.875 C 0.992188 -0.78125 1.046875 -0.6875 1.109375 -0.59375 C 1.179688 -0.507812 1.253906 -0.429688 1.328125 -0.359375 C 1.410156 -0.296875 1.5 -0.242188 1.59375 -0.203125 C 1.695312 -0.171875 1.8125 -0.15625 1.9375 -0.15625 C 2.09375 -0.15625 2.234375 -0.1875 2.359375 -0.25 C 2.484375 -0.320312 2.582031 -0.414062 2.65625 -0.53125 C 2.738281 -0.644531 2.796875 -0.773438 2.828125 -0.921875 C 2.867188 -1.078125 2.890625 -1.238281 2.890625 -1.40625 C 2.890625 -1.519531 2.878906 -1.628906 2.859375 -1.734375 C 2.835938 -1.847656 2.804688 -1.957031 2.765625 -2.0625 C 2.722656 -2.164062 2.671875 -2.257812 2.609375 -2.34375 C 2.546875 -2.425781 2.472656 -2.5 2.390625 -2.5625 C 2.304688 -2.625 2.210938 -2.671875 2.109375 -2.703125 C 2.015625 -2.742188 1.90625 -2.765625 1.78125 -2.765625 C 1.675781 -2.765625 1.578125 -2.742188 1.484375 -2.703125 C 1.398438 -2.671875 1.320312 -2.628906 1.25 -2.578125 C 1.1875 -2.523438 1.125 -2.457031 1.0625 -2.375 C 1.007812 -2.300781 0.960938 -2.21875 0.921875 -2.125 C 0.890625 -2.03125 0.863281 -1.929688 0.84375 -1.828125 C 0.832031 -1.734375 0.828125 -1.632812 0.828125 -1.53125 Z M 0.828125 -1.53125 "/></g></g><g transform="translate(53.931522, 26.520465)"><g/></g><g transform="translate(55.052044, 26.520465)"><g><path d="M 0.015625 -0.09375 C 0.015625 -0.101562 0.0195312 -0.109375 0.03125 -0.109375 C 0.0507812 -0.109375 0.078125 -0.109375 0.109375 -0.109375 C 0.148438 -0.117188 0.1875 -0.132812 0.21875 -0.15625 C 0.257812 -0.175781 0.296875 -0.207031 0.328125 -0.25 C 0.359375 -0.289062 0.382812 -0.34375 0.40625 -0.40625 L 1.234375 -2.78125 C 1.234375 -2.789062 1.234375 -2.796875 1.234375 -2.796875 C 1.234375 -2.804688 1.226562 -2.816406 1.21875 -2.828125 C 1.21875 -2.847656 1.21875 -2.859375 1.21875 -2.859375 C 1.21875 -2.867188 1.21875 -2.875 1.21875 -2.875 L 1.8125 -2.875 C 1.8125 -2.875 1.8125 -2.867188 1.8125 -2.859375 C 1.820312 -2.859375 1.828125 -2.859375 1.828125 -2.859375 L 2.6875 -0.4375 C 2.707031 -0.394531 2.722656 -0.359375 2.734375 -0.328125 C 2.742188 -0.304688 2.753906 -0.285156 2.765625 -0.265625 C 2.785156 -0.242188 2.804688 -0.222656 2.828125 -0.203125 C 2.859375 -0.191406 2.894531 -0.175781 2.9375 -0.15625 C 2.957031 -0.144531 2.984375 -0.132812 3.015625 -0.125 C 3.046875 -0.113281 3.078125 -0.109375 3.109375 -0.109375 C 3.117188 -0.109375 3.125 -0.101562 3.125 -0.09375 L 3.125 -0.015625 C 3.125 -0.015625 3.125 -0.0078125 3.125 0 C 3.125 0 3.117188 0 3.109375 0 L 1.6875 0 C 1.675781 0 1.671875 0 1.671875 0 C 1.671875 -0.0078125 1.671875 -0.015625 1.671875 -0.015625 L 1.671875 -0.09375 C 1.671875 -0.101562 1.675781 -0.109375 1.6875 -0.109375 C 1.695312 -0.109375 1.707031 -0.109375 1.71875 -0.109375 C 1.726562 -0.109375 1.742188 -0.109375 1.765625 -0.109375 C 1.796875 -0.117188 1.828125 -0.125 1.859375 -0.125 C 1.898438 -0.125 1.9375 -0.128906 1.96875 -0.140625 C 2 -0.148438 2.023438 -0.160156 2.046875 -0.171875 C 2.078125 -0.191406 2.101562 -0.210938 2.125 -0.234375 C 2.144531 -0.253906 2.15625 -0.28125 2.15625 -0.3125 C 2.15625 -0.320312 2.148438 -0.332031 2.140625 -0.34375 L 1.875 -1.078125 C 1.875 -1.078125 1.867188 -1.082031 1.859375 -1.09375 C 1.859375 -1.101562 1.851562 -1.113281 1.84375 -1.125 C 1.84375 -1.132812 1.835938 -1.144531 1.828125 -1.15625 C 1.816406 -1.164062 1.800781 -1.171875 1.78125 -1.171875 L 1.046875 -1.171875 C 1.023438 -1.171875 1.007812 -1.164062 1 -1.15625 C 0.988281 -1.144531 0.976562 -1.132812 0.96875 -1.125 C 0.96875 -1.113281 0.960938 -1.101562 0.953125 -1.09375 C 0.953125 -1.082031 0.953125 -1.078125 0.953125 -1.078125 C 0.898438 -0.953125 0.859375 -0.84375 0.828125 -0.75 C 0.804688 -0.664062 0.785156 -0.59375 0.765625 -0.53125 C 0.742188 -0.476562 0.726562 -0.4375 0.71875 -0.40625 C 0.707031 -0.375 0.695312 -0.351562 0.6875 -0.34375 C 0.6875 -0.332031 0.6875 -0.320312 0.6875 -0.3125 C 0.6875 -0.3125 0.6875 -0.304688 0.6875 -0.296875 C 0.6875 -0.296875 0.6875 -0.289062 0.6875 -0.28125 C 0.695312 -0.25 0.71875 -0.222656 0.75 -0.203125 C 0.78125 -0.179688 0.8125 -0.160156 0.84375 -0.140625 C 0.882812 -0.128906 0.925781 -0.117188 0.96875 -0.109375 C 1.007812 -0.109375 1.046875 -0.109375 1.078125 -0.109375 L 1.125 -0.109375 C 1.132812 -0.109375 1.140625 -0.101562 1.140625 -0.09375 L 1.140625 -0.015625 C 1.140625 -0.015625 1.140625 -0.0078125 1.140625 0 C 1.140625 0 1.132812 0 1.125 0 L 0.03125 0 C 0.0195312 0 0.015625 -0.00390625 0.015625 -0.015625 Z M 1.078125 -1.453125 C 1.078125 -1.453125 1.070312 -1.445312 1.0625 -1.4375 C 1.0625 -1.4375 1.0625 -1.429688 1.0625 -1.421875 C 1.0625 -1.410156 1.0625 -1.398438 1.0625 -1.390625 C 1.070312 -1.390625 1.082031 -1.390625 1.09375 -1.390625 L 1.71875 -1.390625 C 1.726562 -1.390625 1.734375 -1.390625 1.734375 -1.390625 C 1.742188 -1.398438 1.75 -1.410156 1.75 -1.421875 C 1.75 -1.429688 1.75 -1.4375 1.75 -1.4375 C 1.75 -1.445312 1.742188 -1.453125 1.734375 -1.453125 L 1.46875 -2.203125 C 1.457031 -2.222656 1.445312 -2.238281 1.4375 -2.25 C 1.425781 -2.257812 1.414062 -2.265625 1.40625 -2.265625 C 1.394531 -2.265625 1.378906 -2.257812 1.359375 -2.25 C 1.347656 -2.238281 1.335938 -2.222656 1.328125 -2.203125 Z M 1.078125 -1.453125 "/></g></g><g transform="translate(58.191545, 26.520465)"><g><path d="M 0.140625 0 C 0.140625 0 0.132812 0 0.125 0 C 0.125 -0.0078125 0.125 -0.015625 0.125 -0.015625 L 0.125 -0.109375 C 0.125 -0.117188 0.128906 -0.125 0.140625 -0.125 C 0.148438 -0.125 0.164062 -0.125 0.1875 -0.125 C 0.207031 -0.125 0.222656 -0.125 0.234375 -0.125 C 0.253906 -0.125 0.269531 -0.125 0.28125 -0.125 C 0.300781 -0.125 0.316406 -0.128906 0.328125 -0.140625 C 0.359375 -0.148438 0.382812 -0.171875 0.40625 -0.203125 C 0.4375 -0.234375 0.457031 -0.265625 0.46875 -0.296875 C 0.476562 -0.328125 0.484375 -0.363281 0.484375 -0.40625 C 0.492188 -0.445312 0.5 -0.492188 0.5 -0.546875 L 0.5 -2.578125 C 0.5 -2.617188 0.484375 -2.648438 0.453125 -2.671875 C 0.421875 -2.691406 0.382812 -2.707031 0.34375 -2.71875 C 0.3125 -2.726562 0.273438 -2.734375 0.234375 -2.734375 C 0.191406 -2.742188 0.160156 -2.75 0.140625 -2.75 C 0.128906 -2.75 0.125 -2.75 0.125 -2.75 C 0.125 -2.757812 0.125 -2.765625 0.125 -2.765625 L 0.125 -2.859375 C 0.125 -2.867188 0.128906 -2.875 0.140625 -2.875 L 1.0625 -2.875 L 2.8125 -0.921875 C 2.820312 -0.921875 2.828125 -0.914062 2.828125 -0.90625 C 2.828125 -0.90625 2.832031 -0.90625 2.84375 -0.90625 C 2.851562 -0.914062 2.859375 -0.921875 2.859375 -0.921875 L 2.859375 -2.140625 C 2.859375 -2.273438 2.851562 -2.378906 2.84375 -2.453125 C 2.832031 -2.535156 2.8125 -2.597656 2.78125 -2.640625 C 2.757812 -2.679688 2.726562 -2.707031 2.6875 -2.71875 C 2.644531 -2.738281 2.585938 -2.75 2.515625 -2.75 L 2.40625 -2.75 C 2.40625 -2.75 2.398438 -2.75 2.390625 -2.75 C 2.390625 -2.757812 2.390625 -2.765625 2.390625 -2.765625 L 2.390625 -2.859375 C 2.398438 -2.867188 2.40625 -2.875 2.40625 -2.875 L 3.53125 -2.875 C 3.539062 -2.875 3.546875 -2.867188 3.546875 -2.859375 L 3.546875 -2.765625 C 3.546875 -2.765625 3.546875 -2.757812 3.546875 -2.75 C 3.546875 -2.75 3.539062 -2.75 3.53125 -2.75 C 3.5 -2.75 3.460938 -2.742188 3.421875 -2.734375 C 3.378906 -2.722656 3.335938 -2.707031 3.296875 -2.6875 C 3.253906 -2.664062 3.21875 -2.640625 3.1875 -2.609375 C 3.164062 -2.578125 3.15625 -2.546875 3.15625 -2.515625 L 3.15625 -0.09375 C 3.15625 -0.0703125 3.148438 -0.0507812 3.140625 -0.03125 C 3.128906 -0.0195312 3.113281 -0.0078125 3.09375 0 C 3.070312 0.0078125 3.050781 0.015625 3.03125 0.015625 C 3.019531 0.0234375 3.003906 0.03125 2.984375 0.03125 C 2.960938 0.03125 2.929688 0.0195312 2.890625 0 C 2.859375 -0.0078125 2.820312 -0.03125 2.78125 -0.0625 L 0.859375 -2.203125 C 0.847656 -2.210938 0.835938 -2.21875 0.828125 -2.21875 C 0.816406 -2.21875 0.8125 -2.210938 0.8125 -2.203125 L 0.8125 -0.390625 C 0.8125 -0.347656 0.820312 -0.3125 0.84375 -0.28125 C 0.863281 -0.257812 0.882812 -0.238281 0.90625 -0.21875 C 0.9375 -0.195312 0.96875 -0.179688 1 -0.171875 C 1.039062 -0.160156 1.078125 -0.148438 1.109375 -0.140625 C 1.140625 -0.128906 1.164062 -0.125 1.1875 -0.125 C 1.21875 -0.125 1.242188 -0.125 1.265625 -0.125 C 1.265625 -0.125 1.265625 -0.117188 1.265625 -0.109375 C 1.273438 -0.109375 1.28125 -0.109375 1.28125 -0.109375 L 1.28125 -0.015625 C 1.28125 -0.015625 1.273438 -0.0078125 1.265625 0 Z M 0.140625 0 "/></g></g><g transform="translate(61.811852, 26.520465)"><g><path d="M 0.109375 0 C 0.0976562 0 0.09375 0 0.09375 0 C 0.09375 -0.0078125 0.09375 -0.015625 0.09375 -0.015625 L 0.09375 -0.109375 C 0.09375 -0.117188 0.0976562 -0.125 0.109375 -0.125 L 0.15625 -0.125 C 0.1875 -0.125 0.222656 -0.125 0.265625 -0.125 C 0.304688 -0.125 0.34375 -0.128906 0.375 -0.140625 C 0.414062 -0.160156 0.453125 -0.1875 0.484375 -0.21875 C 0.515625 -0.25 0.53125 -0.296875 0.53125 -0.359375 L 0.53125 -2.53125 C 0.53125 -2.570312 0.519531 -2.601562 0.5 -2.625 C 0.476562 -2.65625 0.453125 -2.679688 0.421875 -2.703125 C 0.398438 -2.722656 0.367188 -2.738281 0.328125 -2.75 C 0.296875 -2.757812 0.265625 -2.765625 0.234375 -2.765625 L 0.109375 -2.765625 C 0.0976562 -2.765625 0.09375 -2.765625 0.09375 -2.765625 C 0.09375 -2.765625 0.09375 -2.769531 0.09375 -2.78125 L 0.09375 -2.859375 C 0.09375 -2.867188 0.0976562 -2.875 0.109375 -2.875 L 0.15625 -2.875 L 0.984375 -2.890625 C 1.066406 -2.890625 1.15625 -2.890625 1.25 -2.890625 C 1.34375 -2.890625 1.425781 -2.890625 1.5 -2.890625 C 1.582031 -2.890625 1.65625 -2.890625 1.71875 -2.890625 C 1.789062 -2.890625 1.859375 -2.882812 1.921875 -2.875 C 1.984375 -2.875 2.046875 -2.867188 2.109375 -2.859375 C 2.179688 -2.847656 2.253906 -2.832031 2.328125 -2.8125 C 2.484375 -2.78125 2.625 -2.722656 2.75 -2.640625 C 2.882812 -2.554688 3 -2.453125 3.09375 -2.328125 C 3.1875 -2.210938 3.257812 -2.082031 3.3125 -1.9375 C 3.363281 -1.789062 3.390625 -1.644531 3.390625 -1.5 C 3.390625 -1.351562 3.367188 -1.210938 3.328125 -1.078125 C 3.285156 -0.953125 3.226562 -0.832031 3.15625 -0.71875 C 3.082031 -0.601562 2.992188 -0.5 2.890625 -0.40625 C 2.796875 -0.320312 2.6875 -0.25 2.5625 -0.1875 C 2.445312 -0.125 2.320312 -0.078125 2.1875 -0.046875 C 2.050781 -0.015625 1.914062 0 1.78125 0 Z M 1.109375 -0.3125 C 1.109375 -0.269531 1.117188 -0.238281 1.140625 -0.21875 C 1.160156 -0.195312 1.191406 -0.179688 1.234375 -0.171875 C 1.273438 -0.160156 1.320312 -0.15625 1.375 -0.15625 C 1.4375 -0.15625 1.5 -0.15625 1.5625 -0.15625 C 1.96875 -0.15625 2.269531 -0.265625 2.46875 -0.484375 C 2.664062 -0.710938 2.765625 -1.039062 2.765625 -1.46875 C 2.765625 -1.65625 2.742188 -1.828125 2.703125 -1.984375 C 2.660156 -2.140625 2.59375 -2.269531 2.5 -2.375 C 2.40625 -2.488281 2.285156 -2.578125 2.140625 -2.640625 C 2.003906 -2.703125 1.835938 -2.734375 1.640625 -2.734375 L 1.15625 -2.734375 C 1.132812 -2.734375 1.117188 -2.726562 1.109375 -2.71875 C 1.109375 -2.71875 1.109375 -2.707031 1.109375 -2.6875 Z M 1.109375 -0.3125 "/></g></g><g transform="translate(65.3853, 26.520465)"><g/></g><g transform="translate(66.505823, 26.520465)"><g><path d="M 0.015625 -0.109375 C 0.015625 -0.117188 0.0195312 -0.125 0.03125 -0.125 L 0.078125 -0.125 C 0.128906 -0.125 0.1875 -0.125 0.25 -0.125 C 0.3125 -0.125 0.363281 -0.128906 0.40625 -0.140625 C 0.457031 -0.160156 0.5 -0.1875 0.53125 -0.21875 C 0.5625 -0.257812 0.578125 -0.316406 0.578125 -0.390625 L 0.578125 -2.484375 C 0.578125 -2.535156 0.566406 -2.578125 0.546875 -2.609375 C 0.523438 -2.640625 0.492188 -2.664062 0.453125 -2.6875 C 0.421875 -2.707031 0.382812 -2.722656 0.34375 -2.734375 C 0.300781 -2.742188 0.253906 -2.753906 0.203125 -2.765625 L 0.15625 -2.765625 C 0.15625 -2.765625 0.148438 -2.765625 0.140625 -2.765625 C 0.140625 -2.765625 0.140625 -2.769531 0.140625 -2.78125 L 0.140625 -2.859375 C 0.148438 -2.867188 0.15625 -2.875 0.15625 -2.875 L 2.1875 -2.875 C 2.21875 -2.875 2.238281 -2.867188 2.25 -2.859375 C 2.257812 -2.847656 2.265625 -2.828125 2.265625 -2.796875 L 2.296875 -2.15625 C 2.296875 -2.144531 2.289062 -2.132812 2.28125 -2.125 C 2.269531 -2.125 2.257812 -2.125 2.25 -2.125 C 2.238281 -2.125 2.226562 -2.125 2.21875 -2.125 C 2.207031 -2.132812 2.203125 -2.140625 2.203125 -2.140625 C 2.191406 -2.160156 2.179688 -2.179688 2.171875 -2.203125 C 2.171875 -2.234375 2.164062 -2.265625 2.15625 -2.296875 C 2.15625 -2.328125 2.148438 -2.359375 2.140625 -2.390625 C 2.128906 -2.429688 2.113281 -2.460938 2.09375 -2.484375 C 2.082031 -2.515625 2.0625 -2.539062 2.03125 -2.5625 C 2 -2.59375 1.960938 -2.613281 1.921875 -2.625 L 1.1875 -2.625 C 1.164062 -2.625 1.15625 -2.613281 1.15625 -2.59375 L 1.15625 -1.625 C 1.15625 -1.601562 1.164062 -1.59375 1.1875 -1.59375 L 1.765625 -1.59375 C 1.796875 -1.59375 1.828125 -1.597656 1.859375 -1.609375 C 1.898438 -1.617188 1.929688 -1.632812 1.953125 -1.65625 C 1.972656 -1.675781 1.988281 -1.707031 2 -1.75 C 2.019531 -1.789062 2.03125 -1.847656 2.03125 -1.921875 C 2.03125 -1.929688 2.035156 -1.9375 2.046875 -1.9375 L 2.125 -1.9375 C 2.144531 -1.9375 2.15625 -1.929688 2.15625 -1.921875 L 2.15625 -0.984375 C 2.15625 -0.972656 2.148438 -0.96875 2.140625 -0.96875 C 2.140625 -0.96875 2.132812 -0.96875 2.125 -0.96875 L 2.046875 -0.96875 C 2.046875 -0.96875 2.039062 -0.96875 2.03125 -0.96875 C 2.03125 -0.976562 2.03125 -0.984375 2.03125 -0.984375 C 2.03125 -1.054688 2.019531 -1.113281 2 -1.15625 C 1.988281 -1.207031 1.96875 -1.242188 1.9375 -1.265625 C 1.914062 -1.296875 1.890625 -1.316406 1.859375 -1.328125 C 1.828125 -1.335938 1.796875 -1.34375 1.765625 -1.34375 L 1.1875 -1.34375 C 1.164062 -1.34375 1.15625 -1.335938 1.15625 -1.328125 L 1.15625 -0.4375 C 1.15625 -0.394531 1.160156 -0.359375 1.171875 -0.328125 C 1.191406 -0.304688 1.210938 -0.289062 1.234375 -0.28125 C 1.253906 -0.269531 1.273438 -0.257812 1.296875 -0.25 C 1.328125 -0.25 1.359375 -0.25 1.390625 -0.25 L 1.9375 -0.25 C 2.019531 -0.25 2.085938 -0.265625 2.140625 -0.296875 C 2.191406 -0.335938 2.234375 -0.382812 2.265625 -0.4375 C 2.296875 -0.488281 2.316406 -0.539062 2.328125 -0.59375 C 2.347656 -0.65625 2.363281 -0.707031 2.375 -0.75 C 2.375 -0.757812 2.378906 -0.769531 2.390625 -0.78125 C 2.410156 -0.789062 2.429688 -0.796875 2.453125 -0.796875 C 2.453125 -0.796875 2.457031 -0.789062 2.46875 -0.78125 C 2.476562 -0.78125 2.484375 -0.78125 2.484375 -0.78125 L 2.421875 -0.03125 C 2.421875 -0.0195312 2.414062 -0.0078125 2.40625 0 C 2.40625 0 2.398438 0 2.390625 0 L 0.03125 0 C 0.0195312 0 0.015625 0 0.015625 0 C 0.015625 -0.0078125 0.015625 -0.015625 0.015625 -0.015625 Z M 0.015625 -0.109375 "/></g></g><g transform="translate(69.172667, 26.520465)"><g><path d="M 0.21875 -1.421875 C 0.21875 -1.566406 0.234375 -1.707031 0.265625 -1.84375 C 0.304688 -1.976562 0.359375 -2.101562 0.421875 -2.21875 C 0.492188 -2.332031 0.578125 -2.4375 0.671875 -2.53125 C 0.773438 -2.625 0.882812 -2.703125 1 -2.765625 C 1.125 -2.828125 1.253906 -2.875 1.390625 -2.90625 C 1.523438 -2.9375 1.664062 -2.953125 1.8125 -2.953125 C 1.9375 -2.953125 2.054688 -2.941406 2.171875 -2.921875 C 2.285156 -2.898438 2.40625 -2.875 2.53125 -2.84375 C 2.550781 -2.84375 2.570312 -2.835938 2.59375 -2.828125 C 2.625 -2.816406 2.644531 -2.804688 2.65625 -2.796875 C 2.675781 -2.796875 2.691406 -2.789062 2.703125 -2.78125 C 2.722656 -2.78125 2.738281 -2.78125 2.75 -2.78125 C 2.757812 -2.78125 2.769531 -2.78125 2.78125 -2.78125 C 2.800781 -2.789062 2.8125 -2.796875 2.8125 -2.796875 L 2.90625 -2.796875 C 2.925781 -2.796875 2.9375 -2.78125 2.9375 -2.75 L 2.9375 -2.09375 C 2.9375 -2.082031 2.929688 -2.078125 2.921875 -2.078125 C 2.921875 -2.078125 2.910156 -2.078125 2.890625 -2.078125 C 2.878906 -2.078125 2.863281 -2.078125 2.84375 -2.078125 C 2.832031 -2.078125 2.828125 -2.078125 2.828125 -2.078125 C 2.816406 -2.085938 2.804688 -2.097656 2.796875 -2.109375 C 2.796875 -2.117188 2.789062 -2.128906 2.78125 -2.140625 C 2.769531 -2.160156 2.757812 -2.175781 2.75 -2.1875 C 2.75 -2.195312 2.75 -2.203125 2.75 -2.203125 C 2.695312 -2.304688 2.640625 -2.390625 2.578125 -2.453125 C 2.515625 -2.523438 2.445312 -2.582031 2.375 -2.625 C 2.300781 -2.675781 2.21875 -2.710938 2.125 -2.734375 C 2.039062 -2.753906 1.945312 -2.765625 1.84375 -2.765625 C 1.71875 -2.765625 1.601562 -2.75 1.5 -2.71875 C 1.40625 -2.6875 1.316406 -2.640625 1.234375 -2.578125 C 1.160156 -2.523438 1.097656 -2.460938 1.046875 -2.390625 C 1.003906 -2.316406 0.960938 -2.234375 0.921875 -2.140625 C 0.890625 -2.046875 0.867188 -1.945312 0.859375 -1.84375 C 0.847656 -1.75 0.84375 -1.644531 0.84375 -1.53125 C 0.84375 -1.414062 0.847656 -1.300781 0.859375 -1.1875 C 0.878906 -1.070312 0.90625 -0.960938 0.9375 -0.859375 C 0.976562 -0.765625 1.023438 -0.671875 1.078125 -0.578125 C 1.140625 -0.492188 1.210938 -0.421875 1.296875 -0.359375 C 1.378906 -0.296875 1.472656 -0.242188 1.578125 -0.203125 C 1.679688 -0.171875 1.804688 -0.15625 1.953125 -0.15625 C 2.066406 -0.15625 2.171875 -0.171875 2.265625 -0.203125 C 2.367188 -0.234375 2.460938 -0.28125 2.546875 -0.34375 C 2.628906 -0.40625 2.703125 -0.472656 2.765625 -0.546875 C 2.828125 -0.617188 2.882812 -0.695312 2.9375 -0.78125 C 2.9375 -0.789062 2.9375 -0.796875 2.9375 -0.796875 C 2.945312 -0.796875 2.953125 -0.796875 2.953125 -0.796875 L 3.0625 -0.796875 C 3.0625 -0.796875 3.0625 -0.789062 3.0625 -0.78125 C 3.070312 -0.78125 3.078125 -0.773438 3.078125 -0.765625 C 3.078125 -0.765625 3.070312 -0.753906 3.0625 -0.734375 C 3.0625 -0.722656 3.054688 -0.710938 3.046875 -0.703125 L 2.765625 -0.078125 C 2.765625 -0.078125 2.757812 -0.0703125 2.75 -0.0625 C 2.707031 -0.0625 2.679688 -0.0625 2.671875 -0.0625 C 2.660156 -0.0703125 2.648438 -0.078125 2.640625 -0.078125 C 2.597656 -0.078125 2.539062 -0.0664062 2.46875 -0.046875 C 2.40625 -0.0351562 2.332031 -0.0195312 2.25 0 C 2.175781 0.0078125 2.097656 0.0195312 2.015625 0.03125 C 1.941406 0.0507812 1.875 0.0625 1.8125 0.0625 C 1.664062 0.0625 1.523438 0.046875 1.390625 0.015625 C 1.253906 -0.015625 1.125 -0.0625 1 -0.125 C 0.882812 -0.1875 0.78125 -0.257812 0.6875 -0.34375 C 0.59375 -0.425781 0.507812 -0.519531 0.4375 -0.625 C 0.363281 -0.738281 0.304688 -0.859375 0.265625 -0.984375 C 0.234375 -1.117188 0.21875 -1.265625 0.21875 -1.421875 Z M 0.21875 -1.421875 "/></g></g><g transform="translate(72.409959, 26.520465)"><g><path d="M 1.84375 0.046875 C 1.789062 0.046875 1.726562 0.0390625 1.65625 0.03125 C 1.582031 0.03125 1.503906 0.0195312 1.421875 0 C 1.335938 -0.0195312 1.25 -0.046875 1.15625 -0.078125 C 1.0625 -0.117188 0.96875 -0.164062 0.875 -0.21875 C 0.789062 -0.28125 0.707031 -0.347656 0.625 -0.421875 C 0.550781 -0.492188 0.484375 -0.578125 0.421875 -0.671875 C 0.359375 -0.773438 0.304688 -0.890625 0.265625 -1.015625 C 0.234375 -1.148438 0.21875 -1.296875 0.21875 -1.453125 C 0.21875 -1.597656 0.238281 -1.734375 0.28125 -1.859375 C 0.320312 -1.984375 0.378906 -2.101562 0.453125 -2.21875 C 0.523438 -2.332031 0.609375 -2.429688 0.703125 -2.515625 C 0.804688 -2.609375 0.921875 -2.6875 1.046875 -2.75 C 1.179688 -2.820312 1.320312 -2.875 1.46875 -2.90625 C 1.613281 -2.9375 1.769531 -2.953125 1.9375 -2.953125 C 2.070312 -2.953125 2.207031 -2.9375 2.34375 -2.90625 C 2.476562 -2.875 2.601562 -2.828125 2.71875 -2.765625 C 2.832031 -2.703125 2.9375 -2.625 3.03125 -2.53125 C 3.125 -2.445312 3.203125 -2.347656 3.265625 -2.234375 C 3.335938 -2.128906 3.394531 -2.015625 3.4375 -1.890625 C 3.476562 -1.765625 3.5 -1.632812 3.5 -1.5 C 3.5 -1.363281 3.476562 -1.234375 3.4375 -1.109375 C 3.40625 -0.984375 3.351562 -0.863281 3.28125 -0.75 C 3.207031 -0.632812 3.117188 -0.523438 3.015625 -0.421875 C 2.921875 -0.328125 2.8125 -0.242188 2.6875 -0.171875 C 2.570312 -0.0976562 2.441406 -0.0390625 2.296875 0 C 2.148438 0.03125 2 0.046875 1.84375 0.046875 Z M 0.828125 -1.53125 C 0.828125 -1.414062 0.835938 -1.300781 0.859375 -1.1875 C 0.878906 -1.082031 0.910156 -0.976562 0.953125 -0.875 C 0.992188 -0.78125 1.046875 -0.6875 1.109375 -0.59375 C 1.179688 -0.507812 1.253906 -0.429688 1.328125 -0.359375 C 1.410156 -0.296875 1.5 -0.242188 1.59375 -0.203125 C 1.695312 -0.171875 1.8125 -0.15625 1.9375 -0.15625 C 2.09375 -0.15625 2.234375 -0.1875 2.359375 -0.25 C 2.484375 -0.320312 2.582031 -0.414062 2.65625 -0.53125 C 2.738281 -0.644531 2.796875 -0.773438 2.828125 -0.921875 C 2.867188 -1.078125 2.890625 -1.238281 2.890625 -1.40625 C 2.890625 -1.519531 2.878906 -1.628906 2.859375 -1.734375 C 2.835938 -1.847656 2.804688 -1.957031 2.765625 -2.0625 C 2.722656 -2.164062 2.671875 -2.257812 2.609375 -2.34375 C 2.546875 -2.425781 2.472656 -2.5 2.390625 -2.5625 C 2.304688 -2.625 2.210938 -2.671875 2.109375 -2.703125 C 2.015625 -2.742188 1.90625 -2.765625 1.78125 -2.765625 C 1.675781 -2.765625 1.578125 -2.742188 1.484375 -2.703125 C 1.398438 -2.671875 1.320312 -2.628906 1.25 -2.578125 C 1.1875 -2.523438 1.125 -2.457031 1.0625 -2.375 C 1.007812 -2.300781 0.960938 -2.21875 0.921875 -2.125 C 0.890625 -2.03125 0.863281 -1.929688 0.84375 -1.828125 C 0.832031 -1.734375 0.828125 -1.632812 0.828125 -1.53125 Z M 0.828125 -1.53125 "/></g></g><g transform="translate(76.130094, 26.520465)"><g><path d="M 0.140625 0 C 0.140625 0 0.132812 0 0.125 0 C 0.125 -0.0078125 0.125 -0.015625 0.125 -0.015625 L 0.125 -0.109375 C 0.125 -0.117188 0.128906 -0.125 0.140625 -0.125 C 0.148438 -0.125 0.164062 -0.125 0.1875 -0.125 C 0.207031 -0.125 0.222656 -0.125 0.234375 -0.125 C 0.253906 -0.125 0.269531 -0.125 0.28125 -0.125 C 0.300781 -0.125 0.316406 -0.128906 0.328125 -0.140625 C 0.359375 -0.148438 0.382812 -0.171875 0.40625 -0.203125 C 0.4375 -0.234375 0.457031 -0.265625 0.46875 -0.296875 C 0.476562 -0.328125 0.484375 -0.363281 0.484375 -0.40625 C 0.492188 -0.445312 0.5 -0.492188 0.5 -0.546875 L 0.5 -2.578125 C 0.5 -2.617188 0.484375 -2.648438 0.453125 -2.671875 C 0.421875 -2.691406 0.382812 -2.707031 0.34375 -2.71875 C 0.3125 -2.726562 0.273438 -2.734375 0.234375 -2.734375 C 0.191406 -2.742188 0.160156 -2.75 0.140625 -2.75 C 0.128906 -2.75 0.125 -2.75 0.125 -2.75 C 0.125 -2.757812 0.125 -2.765625 0.125 -2.765625 L 0.125 -2.859375 C 0.125 -2.867188 0.128906 -2.875 0.140625 -2.875 L 1.0625 -2.875 L 2.8125 -0.921875 C 2.820312 -0.921875 2.828125 -0.914062 2.828125 -0.90625 C 2.828125 -0.90625 2.832031 -0.90625 2.84375 -0.90625 C 2.851562 -0.914062 2.859375 -0.921875 2.859375 -0.921875 L 2.859375 -2.140625 C 2.859375 -2.273438 2.851562 -2.378906 2.84375 -2.453125 C 2.832031 -2.535156 2.8125 -2.597656 2.78125 -2.640625 C 2.757812 -2.679688 2.726562 -2.707031 2.6875 -2.71875 C 2.644531 -2.738281 2.585938 -2.75 2.515625 -2.75 L 2.40625 -2.75 C 2.40625 -2.75 2.398438 -2.75 2.390625 -2.75 C 2.390625 -2.757812 2.390625 -2.765625 2.390625 -2.765625 L 2.390625 -2.859375 C 2.398438 -2.867188 2.40625 -2.875 2.40625 -2.875 L 3.53125 -2.875 C 3.539062 -2.875 3.546875 -2.867188 3.546875 -2.859375 L 3.546875 -2.765625 C 3.546875 -2.765625 3.546875 -2.757812 3.546875 -2.75 C 3.546875 -2.75 3.539062 -2.75 3.53125 -2.75 C 3.5 -2.75 3.460938 -2.742188 3.421875 -2.734375 C 3.378906 -2.722656 3.335938 -2.707031 3.296875 -2.6875 C 3.253906 -2.664062 3.21875 -2.640625 3.1875 -2.609375 C 3.164062 -2.578125 3.15625 -2.546875 3.15625 -2.515625 L 3.15625 -0.09375 C 3.15625 -0.0703125 3.148438 -0.0507812 3.140625 -0.03125 C 3.128906 -0.0195312 3.113281 -0.0078125 3.09375 0 C 3.070312 0.0078125 3.050781 0.015625 3.03125 0.015625 C 3.019531 0.0234375 3.003906 0.03125 2.984375 0.03125 C 2.960938 0.03125 2.929688 0.0195312 2.890625 0 C 2.859375 -0.0078125 2.820312 -0.03125 2.78125 -0.0625 L 0.859375 -2.203125 C 0.847656 -2.210938 0.835938 -2.21875 0.828125 -2.21875 C 0.816406 -2.21875 0.8125 -2.210938 0.8125 -2.203125 L 0.8125 -0.390625 C 0.8125 -0.347656 0.820312 -0.3125 0.84375 -0.28125 C 0.863281 -0.257812 0.882812 -0.238281 0.90625 -0.21875 C 0.9375 -0.195312 0.96875 -0.179688 1 -0.171875 C 1.039062 -0.160156 1.078125 -0.148438 1.109375 -0.140625 C 1.140625 -0.128906 1.164062 -0.125 1.1875 -0.125 C 1.21875 -0.125 1.242188 -0.125 1.265625 -0.125 C 1.265625 -0.125 1.265625 -0.117188 1.265625 -0.109375 C 1.273438 -0.109375 1.28125 -0.109375 1.28125 -0.109375 L 1.28125 -0.015625 C 1.28125 -0.015625 1.273438 -0.0078125 1.265625 0 Z M 0.140625 0 "/></g></g><g transform="translate(79.750401, 26.520465)"><g><path d="M 1.84375 0.046875 C 1.789062 0.046875 1.726562 0.0390625 1.65625 0.03125 C 1.582031 0.03125 1.503906 0.0195312 1.421875 0 C 1.335938 -0.0195312 1.25 -0.046875 1.15625 -0.078125 C 1.0625 -0.117188 0.96875 -0.164062 0.875 -0.21875 C 0.789062 -0.28125 0.707031 -0.347656 0.625 -0.421875 C 0.550781 -0.492188 0.484375 -0.578125 0.421875 -0.671875 C 0.359375 -0.773438 0.304688 -0.890625 0.265625 -1.015625 C 0.234375 -1.148438 0.21875 -1.296875 0.21875 -1.453125 C 0.21875 -1.597656 0.238281 -1.734375 0.28125 -1.859375 C 0.320312 -1.984375 0.378906 -2.101562 0.453125 -2.21875 C 0.523438 -2.332031 0.609375 -2.429688 0.703125 -2.515625 C 0.804688 -2.609375 0.921875 -2.6875 1.046875 -2.75 C 1.179688 -2.820312 1.320312 -2.875 1.46875 -2.90625 C 1.613281 -2.9375 1.769531 -2.953125 1.9375 -2.953125 C 2.070312 -2.953125 2.207031 -2.9375 2.34375 -2.90625 C 2.476562 -2.875 2.601562 -2.828125 2.71875 -2.765625 C 2.832031 -2.703125 2.9375 -2.625 3.03125 -2.53125 C 3.125 -2.445312 3.203125 -2.347656 3.265625 -2.234375 C 3.335938 -2.128906 3.394531 -2.015625 3.4375 -1.890625 C 3.476562 -1.765625 3.5 -1.632812 3.5 -1.5 C 3.5 -1.363281 3.476562 -1.234375 3.4375 -1.109375 C 3.40625 -0.984375 3.351562 -0.863281 3.28125 -0.75 C 3.207031 -0.632812 3.117188 -0.523438 3.015625 -0.421875 C 2.921875 -0.328125 2.8125 -0.242188 2.6875 -0.171875 C 2.570312 -0.0976562 2.441406 -0.0390625 2.296875 0 C 2.148438 0.03125 2 0.046875 1.84375 0.046875 Z M 0.828125 -1.53125 C 0.828125 -1.414062 0.835938 -1.300781 0.859375 -1.1875 C 0.878906 -1.082031 0.910156 -0.976562 0.953125 -0.875 C 0.992188 -0.78125 1.046875 -0.6875 1.109375 -0.59375 C 1.179688 -0.507812 1.253906 -0.429688 1.328125 -0.359375 C 1.410156 -0.296875 1.5 -0.242188 1.59375 -0.203125 C 1.695312 -0.171875 1.8125 -0.15625 1.9375 -0.15625 C 2.09375 -0.15625 2.234375 -0.1875 2.359375 -0.25 C 2.484375 -0.320312 2.582031 -0.414062 2.65625 -0.53125 C 2.738281 -0.644531 2.796875 -0.773438 2.828125 -0.921875 C 2.867188 -1.078125 2.890625 -1.238281 2.890625 -1.40625 C 2.890625 -1.519531 2.878906 -1.628906 2.859375 -1.734375 C 2.835938 -1.847656 2.804688 -1.957031 2.765625 -2.0625 C 2.722656 -2.164062 2.671875 -2.257812 2.609375 -2.34375 C 2.546875 -2.425781 2.472656 -2.5 2.390625 -2.5625 C 2.304688 -2.625 2.210938 -2.671875 2.109375 -2.703125 C 2.015625 -2.742188 1.90625 -2.765625 1.78125 -2.765625 C 1.675781 -2.765625 1.578125 -2.742188 1.484375 -2.703125 C 1.398438 -2.671875 1.320312 -2.628906 1.25 -2.578125 C 1.1875 -2.523438 1.125 -2.457031 1.0625 -2.375 C 1.007812 -2.300781 0.960938 -2.21875 0.921875 -2.125 C 0.890625 -2.03125 0.863281 -1.929688 0.84375 -1.828125 C 0.832031 -1.734375 0.828125 -1.632812 0.828125 -1.53125 Z M 0.828125 -1.53125 "/></g></g><g transform="translate(83.470536, 26.520465)"><g><path d="M 0.046875 -0.109375 C 0.0546875 -0.117188 0.0625 -0.125 0.0625 -0.125 C 0.15625 -0.125 0.226562 -0.132812 0.28125 -0.15625 C 0.332031 -0.175781 0.367188 -0.203125 0.390625 -0.234375 C 0.410156 -0.273438 0.421875 -0.320312 0.421875 -0.375 C 0.429688 -0.425781 0.4375 -0.484375 0.4375 -0.546875 C 0.445312 -0.710938 0.457031 -0.878906 0.46875 -1.046875 C 0.476562 -1.210938 0.488281 -1.375 0.5 -1.53125 C 0.519531 -1.695312 0.53125 -1.859375 0.53125 -2.015625 C 0.539062 -2.171875 0.546875 -2.328125 0.546875 -2.484375 L 0.546875 -2.5625 C 0.546875 -2.59375 0.535156 -2.617188 0.515625 -2.640625 C 0.492188 -2.660156 0.46875 -2.675781 0.4375 -2.6875 C 0.414062 -2.707031 0.390625 -2.722656 0.359375 -2.734375 C 0.328125 -2.742188 0.304688 -2.75 0.296875 -2.75 C 0.285156 -2.75 0.28125 -2.753906 0.28125 -2.765625 L 0.28125 -2.859375 C 0.28125 -2.867188 0.285156 -2.875 0.296875 -2.875 L 1.015625 -2.875 C 1.023438 -2.875 1.035156 -2.867188 1.046875 -2.859375 C 1.054688 -2.847656 1.066406 -2.835938 1.078125 -2.828125 L 1.96875 -0.84375 C 1.976562 -0.820312 1.988281 -0.8125 2 -0.8125 C 2.007812 -0.8125 2.019531 -0.816406 2.03125 -0.828125 C 2.039062 -0.835938 2.046875 -0.847656 2.046875 -0.859375 L 2.921875 -2.796875 C 2.941406 -2.816406 2.957031 -2.832031 2.96875 -2.84375 C 2.976562 -2.863281 2.988281 -2.875 3 -2.875 L 3.71875 -2.875 C 3.726562 -2.875 3.734375 -2.867188 3.734375 -2.859375 L 3.734375 -2.765625 C 3.734375 -2.765625 3.734375 -2.757812 3.734375 -2.75 C 3.734375 -2.75 3.726562 -2.75 3.71875 -2.75 C 3.71875 -2.75 3.703125 -2.742188 3.671875 -2.734375 C 3.640625 -2.734375 3.609375 -2.722656 3.578125 -2.703125 C 3.546875 -2.691406 3.515625 -2.671875 3.484375 -2.640625 C 3.453125 -2.609375 3.4375 -2.570312 3.4375 -2.53125 L 3.5625 -0.359375 C 3.5625 -0.316406 3.570312 -0.28125 3.59375 -0.25 C 3.613281 -0.226562 3.632812 -0.207031 3.65625 -0.1875 C 3.6875 -0.175781 3.71875 -0.164062 3.75 -0.15625 C 3.78125 -0.144531 3.8125 -0.132812 3.84375 -0.125 C 3.875 -0.125 3.898438 -0.125 3.921875 -0.125 C 3.941406 -0.125 3.953125 -0.125 3.953125 -0.125 C 3.953125 -0.125 3.953125 -0.117188 3.953125 -0.109375 C 3.960938 -0.109375 3.96875 -0.109375 3.96875 -0.109375 L 3.96875 -0.015625 C 3.96875 -0.015625 3.960938 -0.0078125 3.953125 0 L 2.609375 0 C 2.597656 0 2.59375 -0.00390625 2.59375 -0.015625 L 2.59375 -0.109375 C 2.59375 -0.117188 2.597656 -0.125 2.609375 -0.125 C 2.640625 -0.125 2.675781 -0.125 2.71875 -0.125 C 2.757812 -0.125 2.796875 -0.128906 2.828125 -0.140625 C 2.867188 -0.160156 2.898438 -0.179688 2.921875 -0.203125 C 2.953125 -0.222656 2.96875 -0.253906 2.96875 -0.296875 L 2.875 -1.96875 C 2.875 -1.976562 2.875 -1.984375 2.875 -1.984375 C 2.863281 -1.984375 2.859375 -1.976562 2.859375 -1.96875 L 1.953125 -0.03125 C 1.953125 -0.0195312 1.945312 -0.0078125 1.9375 0 C 1.925781 0 1.90625 0 1.875 0 C 1.820312 0 1.785156 0 1.765625 0 C 1.742188 -0.0078125 1.726562 -0.0195312 1.71875 -0.03125 L 0.84375 -1.953125 C 0.84375 -1.960938 0.835938 -1.96875 0.828125 -1.96875 C 0.828125 -1.976562 0.828125 -1.984375 0.828125 -1.984375 C 0.816406 -1.984375 0.8125 -1.972656 0.8125 -1.953125 C 0.8125 -1.910156 0.804688 -1.847656 0.796875 -1.765625 C 0.796875 -1.691406 0.789062 -1.601562 0.78125 -1.5 C 0.78125 -1.40625 0.773438 -1.300781 0.765625 -1.1875 C 0.765625 -1.082031 0.757812 -0.976562 0.75 -0.875 C 0.738281 -0.769531 0.734375 -0.671875 0.734375 -0.578125 C 0.734375 -0.492188 0.734375 -0.421875 0.734375 -0.359375 L 0.734375 -0.28125 C 0.734375 -0.257812 0.742188 -0.238281 0.765625 -0.21875 C 0.785156 -0.195312 0.8125 -0.175781 0.84375 -0.15625 C 0.875 -0.144531 0.910156 -0.132812 0.953125 -0.125 C 0.992188 -0.125 1.035156 -0.125 1.078125 -0.125 C 1.085938 -0.125 1.09375 -0.117188 1.09375 -0.109375 L 1.09375 -0.015625 C 1.09375 -0.00390625 1.085938 0 1.078125 0 L 0.0625 0 C 0.0507812 0 0.046875 -0.00390625 0.046875 -0.015625 Z M 0.046875 -0.109375 "/></g></g><g transform="translate(87.520716, 26.520465)"><g><path d="M 1.09375 -0.390625 C 1.09375 -0.335938 1.097656 -0.296875 1.109375 -0.265625 C 1.128906 -0.234375 1.148438 -0.207031 1.171875 -0.1875 C 1.203125 -0.175781 1.234375 -0.164062 1.265625 -0.15625 C 1.304688 -0.144531 1.351562 -0.140625 1.40625 -0.140625 C 1.414062 -0.140625 1.421875 -0.132812 1.421875 -0.125 L 1.421875 -0.015625 C 1.421875 -0.015625 1.421875 -0.0078125 1.421875 0 C 1.421875 0 1.414062 0 1.40625 0 L 0.203125 0 C 0.191406 0 0.1875 0 0.1875 0 C 0.1875 -0.0078125 0.1875 -0.015625 0.1875 -0.015625 L 0.1875 -0.125 C 0.1875 -0.132812 0.191406 -0.140625 0.203125 -0.140625 C 0.242188 -0.140625 0.285156 -0.140625 0.328125 -0.140625 C 0.367188 -0.148438 0.398438 -0.164062 0.421875 -0.1875 C 0.453125 -0.207031 0.472656 -0.238281 0.484375 -0.28125 C 0.503906 -0.320312 0.515625 -0.375 0.515625 -0.4375 L 0.515625 -2.484375 C 0.515625 -2.523438 0.503906 -2.5625 0.484375 -2.59375 C 0.472656 -2.625 0.453125 -2.648438 0.421875 -2.671875 C 0.398438 -2.691406 0.367188 -2.707031 0.328125 -2.71875 C 0.296875 -2.726562 0.253906 -2.734375 0.203125 -2.734375 C 0.191406 -2.734375 0.1875 -2.738281 0.1875 -2.75 L 0.1875 -2.859375 C 0.1875 -2.867188 0.191406 -2.875 0.203125 -2.875 L 1.40625 -2.875 C 1.414062 -2.875 1.421875 -2.867188 1.421875 -2.859375 L 1.421875 -2.75 C 1.421875 -2.738281 1.421875 -2.734375 1.421875 -2.734375 C 1.421875 -2.734375 1.414062 -2.734375 1.40625 -2.734375 C 1.363281 -2.734375 1.320312 -2.726562 1.28125 -2.71875 C 1.238281 -2.71875 1.203125 -2.707031 1.171875 -2.6875 C 1.148438 -2.664062 1.128906 -2.632812 1.109375 -2.59375 C 1.097656 -2.550781 1.09375 -2.5 1.09375 -2.4375 Z M 1.09375 -0.390625 "/></g></g><g transform="translate(89.128157, 26.520465)"><g><path d="M 0.21875 -1.421875 C 0.21875 -1.566406 0.234375 -1.707031 0.265625 -1.84375 C 0.304688 -1.976562 0.359375 -2.101562 0.421875 -2.21875 C 0.492188 -2.332031 0.578125 -2.4375 0.671875 -2.53125 C 0.773438 -2.625 0.882812 -2.703125 1 -2.765625 C 1.125 -2.828125 1.253906 -2.875 1.390625 -2.90625 C 1.523438 -2.9375 1.664062 -2.953125 1.8125 -2.953125 C 1.9375 -2.953125 2.054688 -2.941406 2.171875 -2.921875 C 2.285156 -2.898438 2.40625 -2.875 2.53125 -2.84375 C 2.550781 -2.84375 2.570312 -2.835938 2.59375 -2.828125 C 2.625 -2.816406 2.644531 -2.804688 2.65625 -2.796875 C 2.675781 -2.796875 2.691406 -2.789062 2.703125 -2.78125 C 2.722656 -2.78125 2.738281 -2.78125 2.75 -2.78125 C 2.757812 -2.78125 2.769531 -2.78125 2.78125 -2.78125 C 2.800781 -2.789062 2.8125 -2.796875 2.8125 -2.796875 L 2.90625 -2.796875 C 2.925781 -2.796875 2.9375 -2.78125 2.9375 -2.75 L 2.9375 -2.09375 C 2.9375 -2.082031 2.929688 -2.078125 2.921875 -2.078125 C 2.921875 -2.078125 2.910156 -2.078125 2.890625 -2.078125 C 2.878906 -2.078125 2.863281 -2.078125 2.84375 -2.078125 C 2.832031 -2.078125 2.828125 -2.078125 2.828125 -2.078125 C 2.816406 -2.085938 2.804688 -2.097656 2.796875 -2.109375 C 2.796875 -2.117188 2.789062 -2.128906 2.78125 -2.140625 C 2.769531 -2.160156 2.757812 -2.175781 2.75 -2.1875 C 2.75 -2.195312 2.75 -2.203125 2.75 -2.203125 C 2.695312 -2.304688 2.640625 -2.390625 2.578125 -2.453125 C 2.515625 -2.523438 2.445312 -2.582031 2.375 -2.625 C 2.300781 -2.675781 2.21875 -2.710938 2.125 -2.734375 C 2.039062 -2.753906 1.945312 -2.765625 1.84375 -2.765625 C 1.71875 -2.765625 1.601562 -2.75 1.5 -2.71875 C 1.40625 -2.6875 1.316406 -2.640625 1.234375 -2.578125 C 1.160156 -2.523438 1.097656 -2.460938 1.046875 -2.390625 C 1.003906 -2.316406 0.960938 -2.234375 0.921875 -2.140625 C 0.890625 -2.046875 0.867188 -1.945312 0.859375 -1.84375 C 0.847656 -1.75 0.84375 -1.644531 0.84375 -1.53125 C 0.84375 -1.414062 0.847656 -1.300781 0.859375 -1.1875 C 0.878906 -1.070312 0.90625 -0.960938 0.9375 -0.859375 C 0.976562 -0.765625 1.023438 -0.671875 1.078125 -0.578125 C 1.140625 -0.492188 1.210938 -0.421875 1.296875 -0.359375 C 1.378906 -0.296875 1.472656 -0.242188 1.578125 -0.203125 C 1.679688 -0.171875 1.804688 -0.15625 1.953125 -0.15625 C 2.066406 -0.15625 2.171875 -0.171875 2.265625 -0.203125 C 2.367188 -0.234375 2.460938 -0.28125 2.546875 -0.34375 C 2.628906 -0.40625 2.703125 -0.472656 2.765625 -0.546875 C 2.828125 -0.617188 2.882812 -0.695312 2.9375 -0.78125 C 2.9375 -0.789062 2.9375 -0.796875 2.9375 -0.796875 C 2.945312 -0.796875 2.953125 -0.796875 2.953125 -0.796875 L 3.0625 -0.796875 C 3.0625 -0.796875 3.0625 -0.789062 3.0625 -0.78125 C 3.070312 -0.78125 3.078125 -0.773438 3.078125 -0.765625 C 3.078125 -0.765625 3.070312 -0.753906 3.0625 -0.734375 C 3.0625 -0.722656 3.054688 -0.710938 3.046875 -0.703125 L 2.765625 -0.078125 C 2.765625 -0.078125 2.757812 -0.0703125 2.75 -0.0625 C 2.707031 -0.0625 2.679688 -0.0625 2.671875 -0.0625 C 2.660156 -0.0703125 2.648438 -0.078125 2.640625 -0.078125 C 2.597656 -0.078125 2.539062 -0.0664062 2.46875 -0.046875 C 2.40625 -0.0351562 2.332031 -0.0195312 2.25 0 C 2.175781 0.0078125 2.097656 0.0195312 2.015625 0.03125 C 1.941406 0.0507812 1.875 0.0625 1.8125 0.0625 C 1.664062 0.0625 1.523438 0.046875 1.390625 0.015625 C 1.253906 -0.015625 1.125 -0.0625 1 -0.125 C 0.882812 -0.1875 0.78125 -0.257812 0.6875 -0.34375 C 0.59375 -0.425781 0.507812 -0.519531 0.4375 -0.625 C 0.363281 -0.738281 0.304688 -0.859375 0.265625 -0.984375 C 0.234375 -1.117188 0.21875 -1.265625 0.21875 -1.421875 Z M 0.21875 -1.421875 "/></g></g><g transform="translate(92.365448, 26.520465)"><g><path d="M 0.28125 -0.0625 C 0.257812 -0.0625 0.25 -0.0703125 0.25 -0.09375 C 0.226562 -0.226562 0.210938 -0.328125 0.203125 -0.390625 C 0.203125 -0.460938 0.195312 -0.515625 0.1875 -0.546875 C 0.1875 -0.585938 0.1875 -0.613281 0.1875 -0.625 C 0.1875 -0.632812 0.1875 -0.640625 0.1875 -0.640625 C 0.1875 -0.660156 0.191406 -0.675781 0.203125 -0.6875 C 0.210938 -0.707031 0.226562 -0.71875 0.25 -0.71875 C 0.269531 -0.71875 0.285156 -0.707031 0.296875 -0.6875 C 0.316406 -0.675781 0.332031 -0.660156 0.34375 -0.640625 C 0.351562 -0.617188 0.363281 -0.597656 0.375 -0.578125 C 0.382812 -0.554688 0.394531 -0.539062 0.40625 -0.53125 C 0.4375 -0.445312 0.472656 -0.378906 0.515625 -0.328125 C 0.554688 -0.285156 0.601562 -0.25 0.65625 -0.21875 C 0.707031 -0.1875 0.765625 -0.160156 0.828125 -0.140625 C 0.898438 -0.128906 0.976562 -0.125 1.0625 -0.125 C 1.207031 -0.125 1.320312 -0.160156 1.40625 -0.234375 C 1.488281 -0.304688 1.53125 -0.414062 1.53125 -0.5625 C 1.53125 -0.65625 1.507812 -0.738281 1.46875 -0.8125 C 1.425781 -0.882812 1.375 -0.945312 1.3125 -1 C 1.25 -1.0625 1.175781 -1.117188 1.09375 -1.171875 C 1.019531 -1.234375 0.941406 -1.289062 0.859375 -1.34375 C 0.773438 -1.40625 0.691406 -1.46875 0.609375 -1.53125 C 0.523438 -1.59375 0.453125 -1.660156 0.390625 -1.734375 C 0.328125 -1.804688 0.273438 -1.890625 0.234375 -1.984375 C 0.203125 -2.078125 0.1875 -2.179688 0.1875 -2.296875 C 0.1875 -2.359375 0.195312 -2.421875 0.21875 -2.484375 C 0.25 -2.546875 0.285156 -2.597656 0.328125 -2.640625 C 0.367188 -2.691406 0.414062 -2.738281 0.46875 -2.78125 C 0.519531 -2.820312 0.578125 -2.851562 0.640625 -2.875 C 0.710938 -2.90625 0.78125 -2.925781 0.84375 -2.9375 C 0.90625 -2.945312 0.96875 -2.953125 1.03125 -2.953125 C 1.082031 -2.953125 1.132812 -2.945312 1.1875 -2.9375 C 1.238281 -2.9375 1.285156 -2.925781 1.328125 -2.90625 C 1.378906 -2.894531 1.429688 -2.882812 1.484375 -2.875 C 1.535156 -2.863281 1.585938 -2.847656 1.640625 -2.828125 L 1.765625 -2.84375 C 1.785156 -2.84375 1.796875 -2.835938 1.796875 -2.828125 C 1.796875 -2.816406 1.796875 -2.804688 1.796875 -2.796875 L 1.859375 -2.328125 C 1.859375 -2.316406 1.847656 -2.3125 1.828125 -2.3125 C 1.816406 -2.3125 1.804688 -2.3125 1.796875 -2.3125 C 1.785156 -2.3125 1.769531 -2.3125 1.75 -2.3125 C 1.738281 -2.3125 1.734375 -2.3125 1.734375 -2.3125 C 1.722656 -2.320312 1.710938 -2.332031 1.703125 -2.34375 C 1.703125 -2.351562 1.695312 -2.363281 1.6875 -2.375 C 1.6875 -2.394531 1.679688 -2.410156 1.671875 -2.421875 C 1.660156 -2.441406 1.65625 -2.457031 1.65625 -2.46875 C 1.582031 -2.570312 1.492188 -2.648438 1.390625 -2.703125 C 1.296875 -2.753906 1.1875 -2.78125 1.0625 -2.78125 C 1.007812 -2.78125 0.957031 -2.769531 0.90625 -2.75 C 0.863281 -2.738281 0.828125 -2.71875 0.796875 -2.6875 C 0.765625 -2.664062 0.738281 -2.632812 0.71875 -2.59375 C 0.695312 -2.550781 0.6875 -2.503906 0.6875 -2.453125 C 0.6875 -2.367188 0.703125 -2.289062 0.734375 -2.21875 C 0.773438 -2.15625 0.828125 -2.09375 0.890625 -2.03125 C 0.953125 -1.976562 1.023438 -1.921875 1.109375 -1.859375 C 1.191406 -1.804688 1.273438 -1.75 1.359375 -1.6875 C 1.441406 -1.632812 1.519531 -1.570312 1.59375 -1.5 C 1.675781 -1.4375 1.75 -1.363281 1.8125 -1.28125 C 1.882812 -1.207031 1.9375 -1.125 1.96875 -1.03125 C 2.007812 -0.9375 2.03125 -0.828125 2.03125 -0.703125 C 2.03125 -0.617188 2.015625 -0.539062 1.984375 -0.46875 C 1.960938 -0.40625 1.925781 -0.34375 1.875 -0.28125 C 1.832031 -0.226562 1.773438 -0.179688 1.703125 -0.140625 C 1.640625 -0.0976562 1.570312 -0.0625 1.5 -0.03125 C 1.425781 0 1.351562 0.0195312 1.28125 0.03125 C 1.207031 0.0507812 1.132812 0.0625 1.0625 0.0625 C 0.96875 0.0625 0.882812 0.0507812 0.8125 0.03125 C 0.738281 0.0195312 0.675781 0.0078125 0.625 0 C 0.582031 -0.0195312 0.539062 -0.0351562 0.5 -0.046875 C 0.46875 -0.0664062 0.441406 -0.078125 0.421875 -0.078125 C 0.410156 -0.078125 0.40625 -0.078125 0.40625 -0.078125 Z M 0.28125 -0.0625 "/></g></g></g></svg>